<?xml version="1.0" encoding="UTF-8" standalone="no"?>
<!DOCTYPE svg PUBLIC "-//W3C//DTD SVG 1.1//EN"
 "http://www.w3.org/Graphics/SVG/1.1/DTD/svg11.dtd">
<!-- Generated by graphviz version 14.0.2 (20251019.1705)
 -->
<!-- Title: sessions Pages: 1 -->
<svg width="1533pt" height="206pt"
 viewBox="0.00 0.00 1533.00 206.00" xmlns="http://www.w3.org/2000/svg" xmlns:xlink="http://www.w3.org/1999/xlink">
<g id="graph0" class="graph" transform="scale(1 1) rotate(0) translate(4 202)">
<title>sessions</title>
<polygon fill="white" stroke="none" points="-4,4 -4,-202 1529,-202 1529,4 -4,4"/>
<!-- LEARNINGS_TASK_37_md -->
<g id="node1" class="node">
<title>LEARNINGS_TASK_37_md</title>
<polygon fill="lightblue" stroke="black" points="245.88,-36 55.88,-36 55.88,0 245.88,0 245.88,-36"/>
<text xml:space="preserve" text-anchor="middle" x="150.88" y="-14.07" font-family="Times,serif" font-size="14.00">📄 LEARNINGS&#45;TASK&#45;37.md</text>
</g>
<!-- TASK_37_SUMMARY_md -->
<g id="node7" class="node">
<title>TASK_37_SUMMARY_md</title>
<polygon fill="lightblue" stroke="black" points="647,-36 467.5,-36 467.5,0 647,0 647,-36"/>
<text xml:space="preserve" text-anchor="middle" x="557.25" y="-14.07" font-family="Times,serif" font-size="14.00">📄 TASK 37 SUMMARY.md</text>
</g>
<!-- LEARNINGS_TASK_37_md&#45;&gt;TASK_37_SUMMARY_md -->
<g id="edge4" class="edge">
<title>LEARNINGS_TASK_37_md&#45;&gt;TASK_37_SUMMARY_md</title>
<path fill="none" stroke="black" d="M246.17,-18C309.03,-18 391.56,-18 455.67,-18"/>
<polygon fill="black" stroke="black" points="455.5,-21.5 465.5,-18 455.5,-14.5 455.5,-21.5"/>
<text xml:space="preserve" text-anchor="middle" x="352.38" y="-21.2" font-family="Times,serif" font-size="14.00">same task</text>
</g>
<!-- LEARNING_2025_10_29T14_08_09_558919Z_md -->
<g id="node2" class="node">
<title>LEARNING_2025_10_29T14_08_09_558919Z_md</title>
<polygon fill="lightblue" stroke="black" points="301.75,-90 0,-90 0,-54 301.75,-54 301.75,-90"/>
<text xml:space="preserve" text-anchor="middle" x="150.88" y="-68.08" font-family="Times,serif" font-size="14.00">📄 LEARNING 2025&#45;10&#45;29T14&#45;08&#45;09.558919Z.md</text>
</g>
<!-- SESSION_LEARNINGS_2025_10_28_extended_md -->
<g id="node3" class="node">
<title>SESSION_LEARNINGS_2025_10_28_extended_md</title>
<polygon fill="lightblue" stroke="black" points="711.5,-90 403,-90 403,-54 711.5,-54 711.5,-90"/>
<text xml:space="preserve" text-anchor="middle" x="557.25" y="-68.08" font-family="Times,serif" font-size="14.00">📄 SESSION LEARNINGS 2025 10 28 extended.md</text>
</g>
<!-- LEARNING_2025_10_29T14_08_09_558919Z_md&#45;&gt;SESSION_LEARNINGS_2025_10_28_extended_md -->
<g id="edge1" class="edge">
<title>LEARNING_2025_10_29T14_08_09_558919Z_md&#45;&gt;SESSION_LEARNINGS_2025_10_28_extended_md</title>
<path fill="none" stroke="black" d="M302.16,-72C331.25,-72 361.87,-72 391.39,-72"/>
<polygon fill="black" stroke="black" points="391.13,-75.5 401.13,-72 391.13,-68.5 391.13,-75.5"/>
<text xml:space="preserve" text-anchor="middle" x="352.38" y="-75.2" font-family="Times,serif" font-size="14.00">followed by</text>
</g>
<!-- SESSION_LEARNINGS_2025_10_28_session2_md -->
<g id="node4" class="node">
<title>SESSION_LEARNINGS_2025_10_28_session2_md</title>
<polygon fill="lightblue" stroke="black" points="1118.25,-90 812.75,-90 812.75,-54 1118.25,-54 1118.25,-90"/>
<text xml:space="preserve" text-anchor="middle" x="965.5" y="-68.08" font-family="Times,serif" font-size="14.00">📄 SESSION LEARNINGS 2025 10 28 session2.md</text>
</g>
<!-- SESSION_LEARNINGS_2025_10_28_extended_md&#45;&gt;SESSION_LEARNINGS_2025_10_28_session2_md -->
<g id="edge2" class="edge">
<title>SESSION_LEARNINGS_2025_10_28_extended_md&#45;&gt;SESSION_LEARNINGS_2025_10_28_session2_md</title>
<path fill="none" stroke="black" d="M711.84,-72C741.02,-72 771.67,-72 801.15,-72"/>
<polygon fill="black" stroke="black" points="800.87,-75.5 810.87,-72 800.87,-68.5 800.87,-75.5"/>
<text xml:space="preserve" text-anchor="middle" x="762.12" y="-75.2" font-family="Times,serif" font-size="14.00">followed by</text>
</g>
<!-- SESSION_LEARNINGS_2025_10_29_session3_md -->
<g id="node5" class="node">
<title>SESSION_LEARNINGS_2025_10_29_session3_md</title>
<polygon fill="lightblue" stroke="black" points="1525,-90 1219.5,-90 1219.5,-54 1525,-54 1525,-90"/>
<text xml:space="preserve" text-anchor="middle" x="1372.25" y="-68.08" font-family="Times,serif" font-size="14.00">📄 SESSION LEARNINGS 2025 10 29 session3.md</text>
</g>
<!-- SESSION_LEARNINGS_2025_10_28_session2_md&#45;&gt;SESSION_LEARNINGS_2025_10_29_session3_md -->
<g id="edge3" class="edge">
<title>SESSION_LEARNINGS_2025_10_28_session2_md&#45;&gt;SESSION_LEARNINGS_2025_10_29_session3_md</title>
<path fill="none" stroke="black" d="M1118.65,-72C1147.78,-72 1178.38,-72 1207.85,-72"/>
<polygon fill="black" stroke="black" points="1207.56,-75.5 1217.56,-72 1207.56,-68.5 1207.56,-75.5"/>
<text xml:space="preserve" text-anchor="middle" x="1168.88" y="-75.2" font-family="Times,serif" font-size="14.00">followed by</text>
</g>
<!-- TASK_34_SUMMARY_md -->
<g id="node6" class="node">
<title>TASK_34_SUMMARY_md</title>
<polygon fill="lightblue" stroke="black" points="240.62,-144 61.12,-144 61.12,-108 240.62,-108 240.62,-144"/>
<text xml:space="preserve" text-anchor="middle" x="150.88" y="-122.08" font-family="Times,serif" font-size="14.00">📄 TASK 34 SUMMARY.md</text>
</g>
<!-- WHAT_WENT_WRONG_md -->
<g id="node8" class="node">
<title>WHAT_WENT_WRONG_md</title>
<polygon fill="lightblue" stroke="black" points="245.88,-198 55.88,-198 55.88,-162 245.88,-162 245.88,-198"/>
<text xml:space="preserve" text-anchor="middle" x="150.88" y="-176.07" font-family="Times,serif" font-size="14.00">📄 WHAT WENT WRONG.md</text>
</g>
</g>
</svg>
