<?xml version="1.0" encoding="UTF-8" standalone="no"?>
<!DOCTYPE svg PUBLIC "-//W3C//DTD SVG 1.1//EN"
 "http://www.w3.org/Graphics/SVG/1.1/DTD/svg11.dtd">
<!-- Generated by graphviz version 14.0.2 (20251019.1705)
 -->
<!-- Title: maestro Pages: 1 -->
<svg width="230pt" height="260pt"
 viewBox="0.00 0.00 230.00 260.00" xmlns="http://www.w3.org/2000/svg" xmlns:xlink="http://www.w3.org/1999/xlink">
<g id="graph0" class="graph" transform="scale(1 1) rotate(0) translate(4 256)">
<title>maestro</title>
<polygon fill="white" stroke="none" points="-4,4 -4,-256 225.5,-256 225.5,4 -4,4"/>
<!-- AGENT_COMMUNICATION_md -->
<g id="node1" class="node">
<title>AGENT_COMMUNICATION_md</title>
<polygon fill="lightblue" stroke="black" points="221.5,-36 0,-36 0,0 221.5,0 221.5,-36"/>
<text xml:space="preserve" text-anchor="middle" x="110.75" y="-14.07" font-family="Times,serif" font-size="14.00">📄 AGENT COMMUNICATION.md</text>
</g>
<!-- SESSION_WORKFLOW_md -->
<g id="node2" class="node">
<title>SESSION_WORKFLOW_md</title>
<polygon fill="lightblue" stroke="black" points="206.88,-90 14.62,-90 14.62,-54 206.88,-54 206.88,-90"/>
<text xml:space="preserve" text-anchor="middle" x="110.75" y="-68.08" font-family="Times,serif" font-size="14.00">📄 SESSION WORKFLOW.md</text>
</g>
<!-- TASK_RUNNER_md -->
<g id="node3" class="node">
<title>TASK_RUNNER_md</title>
<polygon fill="lightblue" stroke="black" points="185.12,-144 36.38,-144 36.38,-108 185.12,-108 185.12,-144"/>
<text xml:space="preserve" text-anchor="middle" x="110.75" y="-122.08" font-family="Times,serif" font-size="14.00">📄 TASK RUNNER.md</text>
</g>
<!-- completion_checklist_md -->
<g id="node4" class="node">
<title>completion_checklist_md</title>
<polygon fill="lightblue" stroke="black" points="195.25,-198 26.25,-198 26.25,-162 195.25,-162 195.25,-198"/>
<text xml:space="preserve" text-anchor="middle" x="110.75" y="-176.07" font-family="Times,serif" font-size="14.00">📄 completion checklist.md</text>
</g>
<!-- task_runner_pattern_md -->
<g id="node5" class="node">
<title>task_runner_pattern_md</title>
<polygon fill="lightblue" stroke="black" points="189.62,-252 31.88,-252 31.88,-216 189.62,-216 189.62,-252"/>
<text xml:space="preserve" text-anchor="middle" x="110.75" y="-230.07" font-family="Times,serif" font-size="14.00">📄 task runner pattern.md</text>
</g>
</g>
</svg>
