<!-- Generated by graphviz version 14.0.2 (20251019.1705)
 -->
<!-- Title: sessions Pages: 1 -->
<svg style="width: 100%; height: auto;"
 viewBox="0.00 0.00 757.00 123.00" xmlns="http://www.w3.org/2000/svg" xmlns:xlink="http://www.w3.org/1999/xlink">
<g id="graph0" class="graph" transform="scale(1 1) rotate(0) translate(4 118.5)">
<title>sessions</title>
<polygon fill="white" stroke="none" points="-4,4 -4,-118.5 752.75,-118.5 752.75,4 -4,4"/>
<text xml:space="preserve" text-anchor="middle" x="374.38" y="-97.2" font-family="Times,serif" font-size="14.00">Cross&#45;project learnings from actual agent work sessions</text>
<!-- always_use_ash -->
<g id="node1" class="node">
<title>always_use_ash</title>
<polygon fill="lightblue" stroke="black" points="103,-56 0,-56 0,-20 103,-20 103,-56"/>
<text xml:space="preserve" text-anchor="middle" x="51.5" y="-32.95" font-family="Times,serif" font-size="14.00">always_use_ash</text>
</g>
<!-- task_runner_pattern -->
<g id="node2" class="node">
<title>task_runner_pattern</title>
<polygon fill="lightblue" stroke="black" points="328.25,-56 204.25,-56 204.25,-20 328.25,-20 328.25,-56"/>
<text xml:space="preserve" text-anchor="middle" x="266.25" y="-32.95" font-family="Times,serif" font-size="14.00">task_runner_pattern</text>
</g>
<!-- always_use_ash&#45;&gt;task_runner_pattern -->
<g id="edge1" class="edge">
<title>always_use_ash&#45;&gt;task_runner_pattern</title>
<path fill="none" stroke="black" d="M103.46,-38C130.16,-38 163.31,-38 192.65,-38"/>
<polygon fill="black" stroke="black" points="192.59,-41.5 202.59,-38 192.59,-34.5 192.59,-41.5"/>
<text xml:space="preserve" text-anchor="middle" x="153.62" y="-41.2" font-family="Times,serif" font-size="14.00">required_by</text>
</g>
<!-- guideline_usage_tracking -->
<g id="node3" class="node">
<title>guideline_usage_tracking</title>
<polygon fill="lightblue" stroke="black" points="562.5,-90 407.75,-90 407.75,-54 562.5,-54 562.5,-90"/>
<text xml:space="preserve" text-anchor="middle" x="485.12" y="-66.95" font-family="Times,serif" font-size="14.00">guideline_usage_tracking</text>
</g>
<!-- task_runner_pattern&#45;&gt;guideline_usage_tracking -->
<g id="edge4" class="edge">
<title>task_runner_pattern&#45;&gt;guideline_usage_tracking</title>
<path fill="none" stroke="black" d="M328.53,-47.61C349.63,-50.91 373.68,-54.69 396.47,-58.26"/>
<polygon fill="black" stroke="black" points="395.62,-61.67 406.04,-59.76 396.7,-54.75 395.62,-61.67"/>
<text xml:space="preserve" text-anchor="middle" x="368" y="-60.24" font-family="Times,serif" font-size="14.00">requires</text>
</g>
<!-- completion_checklist -->
<g id="node5" class="node">
<title>completion_checklist</title>
<polygon fill="lightblue" stroke="black" points="551.25,-36 419,-36 419,0 551.25,0 551.25,-36"/>
<text xml:space="preserve" text-anchor="middle" x="485.12" y="-12.95" font-family="Times,serif" font-size="14.00">completion_checklist</text>
</g>
<!-- task_runner_pattern&#45;&gt;completion_checklist -->
<g id="edge3" class="edge">
<title>task_runner_pattern&#45;&gt;completion_checklist</title>
<path fill="none" stroke="black" d="M328.43,-28.58C334.44,-27.81 340.46,-27.1 346.25,-26.5 366.08,-24.45 387.58,-22.83 407.56,-21.59"/>
<polygon fill="black" stroke="black" points="407.52,-25.1 417.3,-21 407.11,-18.11 407.52,-25.1"/>
<text xml:space="preserve" text-anchor="middle" x="368" y="-29.7" font-family="Times,serif" font-size="14.00">uses</text>
</g>
<!-- minimal_loading -->
<g id="node4" class="node">
<title>minimal_loading</title>
<polygon fill="lightblue" stroke="black" points="748.75,-90 639,-90 639,-54 748.75,-54 748.75,-90"/>
<text xml:space="preserve" text-anchor="middle" x="693.88" y="-66.95" font-family="Times,serif" font-size="14.00">minimal_loading</text>
</g>
<!-- guideline_usage_tracking&#45;&gt;minimal_loading -->
<g id="edge2" class="edge">
<title>guideline_usage_tracking&#45;&gt;minimal_loading</title>
<path fill="none" stroke="black" d="M562.82,-72C583.95,-72 606.69,-72 627.14,-72"/>
<polygon fill="black" stroke="black" points="627.06,-75.5 637.06,-72 627.06,-68.5 627.06,-75.5"/>
<text xml:space="preserve" text-anchor="middle" x="600.75" y="-75.2" font-family="Times,serif" font-size="14.00">enables</text>
</g>
</g>
</svg>