<?xml version="1.0" encoding="UTF-8" standalone="no"?>
<!DOCTYPE svg PUBLIC "-//W3C//DTD SVG 1.1//EN"
 "http://www.w3.org/Graphics/SVG/1.1/DTD/svg11.dtd">
<!-- Generated by graphviz version 14.0.2 (20251019.1705)
 -->
<!-- Title: GuidelineConcepts Pages: 1 -->
<svg width="1717pt" height="1118pt"
 viewBox="0.00 0.00 1717.00 1118.00" xmlns="http://www.w3.org/2000/svg" xmlns:xlink="http://www.w3.org/1999/xlink">
<g id="graph0" class="graph" transform="scale(1 1) rotate(0) translate(4 1114.48)">
<title>GuidelineConcepts</title>
<polygon fill="white" stroke="none" points="-4,4 -4,-1114.48 1712.5,-1114.48 1712.5,4 -4,4"/>
<g id="clust1" class="cluster">
<title>cluster_core</title>
<polygon fill="lightgrey" stroke="lightgrey" points="524.12,-945.48 524.12,-1102.48 1700.5,-1102.48 1700.5,-945.48 524.12,-945.48"/>
<text xml:space="preserve" text-anchor="middle" x="1112.31" y="-1085.18" font-family="Times,serif" font-size="14.00">Core Guidelines</text>
</g>
<g id="clust2" class="cluster">
<title>cluster_data</title>
<polygon fill="lightgrey" stroke="lightgrey" points="9.12,-535.48 9.12,-728.48 1100.75,-728.48 1100.75,-535.48 9.12,-535.48"/>
<text xml:space="preserve" text-anchor="middle" x="554.94" y="-711.18" font-family="Times,serif" font-size="14.00">Database Layer</text>
</g>
<g id="clust3" class="cluster">
<title>cluster_ui</title>
<polygon fill="lightgrey" stroke="lightgrey" points="8,-251.48 8,-438.48 1696.38,-438.48 1696.38,-251.48 8,-251.48"/>
<text xml:space="preserve" text-anchor="middle" x="852.19" y="-421.18" font-family="Times,serif" font-size="14.00">UI Layer</text>
</g>
<g id="clust4" class="cluster">
<title>cluster_tools</title>
<polygon fill="lightgrey" stroke="lightgrey" points="957.75,-43.48 957.75,-243.48 1122.5,-243.48 1122.5,-43.48 957.75,-43.48"/>
<text xml:space="preserve" text-anchor="middle" x="1040.12" y="-226.18" font-family="Times,serif" font-size="14.00">Tools &amp; Infrastructure</text>
</g>
<g id="clust5" class="cluster">
<title>cluster_projects</title>
<polygon fill="lightgrey" stroke="lightgrey" points="934.5,-736.48 934.5,-877.48 1428,-877.48 1428,-736.48 934.5,-736.48"/>
<text xml:space="preserve" text-anchor="middle" x="1181.25" y="-860.18" font-family="Times,serif" font-size="14.00">Projects</text>
</g>
<!-- git -->
<g id="node1" class="node">
<title>git</title>
<polygon fill="lightblue" stroke="black" points="1092.75,-994.98 987.5,-994.98 987.5,-953.98 1092.75,-953.98 1092.75,-994.98"/>
<text xml:space="preserve" text-anchor="middle" x="1040.12" y="-977.68" font-family="Times,serif" font-size="14.00">Git Workflow</text>
<text xml:space="preserve" text-anchor="middle" x="1040.12" y="-961.18" font-family="Times,serif" font-size="14.00">(GUIDELINES)</text>
</g>
<!-- verification -->
<g id="node3" class="node">
<title>verification</title>
<polygon fill="lightblue" stroke="black" points="1411.75,-994.98 1300.5,-994.98 1300.5,-953.98 1411.75,-953.98 1411.75,-994.98"/>
<text xml:space="preserve" text-anchor="middle" x="1356.12" y="-977.68" font-family="Times,serif" font-size="14.00">Code Verification</text>
<text xml:space="preserve" text-anchor="middle" x="1356.12" y="-961.18" font-family="Times,serif" font-size="14.00">(GUIDELINES)</text>
</g>
<!-- git&#45;&gt;verification -->
<g id="edge20" class="edge">
<title>git&#45;&gt;verification</title>
<path fill="none" stroke="black" d="M1092.98,-974.48C1146.54,-974.48 1230.32,-974.48 1288.7,-974.48"/>
<polygon fill="black" stroke="black" points="1288.51,-977.98 1298.51,-974.48 1288.51,-970.98 1288.51,-977.98"/>
<text xml:space="preserve" text-anchor="middle" x="1196.62" y="-977.68" font-family="Times,serif" font-size="14.00">before merge</text>
</g>
<!-- git_maestro -->
<g id="node2" class="node">
<title>git_maestro</title>
<polygon fill="lightblue" stroke="black" points="718.38,-1011.23 532.12,-1011.23 532.12,-953.73 718.38,-953.73 718.38,-1011.23"/>
<text xml:space="preserve" text-anchor="middle" x="625.25" y="-993.93" font-family="Times,serif" font-size="14.00">Git Maestro</text>
<text xml:space="preserve" text-anchor="middle" x="625.25" y="-977.43" font-family="Times,serif" font-size="14.00">Specialized Agent</text>
<text xml:space="preserve" text-anchor="middle" x="625.25" y="-960.93" font-family="Times,serif" font-size="14.00">(GIT_MAESTRO_STARTUP)</text>
</g>
<!-- git_maestro&#45;&gt;git -->
<g id="edge36" class="edge">
<title>git_maestro&#45;&gt;git</title>
<path fill="none" stroke="black" d="M718.65,-980.69C796.85,-979.17 906.86,-977.04 975.52,-975.71"/>
<polygon fill="black" stroke="black" points="975.57,-979.21 985.5,-975.52 975.43,-972.21 975.57,-979.21"/>
<text xml:space="preserve" text-anchor="middle" x="832.88" y="-983.31" font-family="Times,serif" font-size="14.00">executes</text>
</g>
<!-- communication -->
<g id="node4" class="node">
<title>communication</title>
<polygon fill="lightblue" stroke="black" points="1692.5,-1020.98 1587.25,-1020.98 1587.25,-979.98 1692.5,-979.98 1692.5,-1020.98"/>
<text xml:space="preserve" text-anchor="middle" x="1639.88" y="-1003.68" font-family="Times,serif" font-size="14.00">Communication</text>
<text xml:space="preserve" text-anchor="middle" x="1639.88" y="-987.18" font-family="Times,serif" font-size="14.00">(GUIDELINES)</text>
</g>
<!-- verification&#45;&gt;communication -->
<g id="edge21" class="edge">
<title>verification&#45;&gt;communication</title>
<path fill="none" stroke="black" d="M1412.12,-979.55C1458.97,-983.88 1526.31,-990.09 1575.43,-994.62"/>
<polygon fill="black" stroke="black" points="1575.09,-998.11 1585.37,-995.54 1575.73,-991.14 1575.09,-998.11"/>
<text xml:space="preserve" text-anchor="middle" x="1524.25" y="-996.7" font-family="Times,serif" font-size="14.00">report via</text>
</g>
<!-- startup_json -->
<g id="node5" class="node">
<title>startup_json</title>
<polygon fill="lightblue" stroke="black" points="706.75,-1069.98 543.75,-1069.98 543.75,-1028.98 706.75,-1028.98 706.75,-1069.98"/>
<text xml:space="preserve" text-anchor="middle" x="625.25" y="-1052.68" font-family="Times,serif" font-size="14.00">Startup JSON</text>
<text xml:space="preserve" text-anchor="middle" x="625.25" y="-1036.18" font-family="Times,serif" font-size="14.00">(guides/STARTUP_JSON)</text>
</g>
<!-- startup_json&#45;&gt;git -->
<g id="edge22" class="edge">
<title>startup_json&#45;&gt;git</title>
<path fill="none" stroke="black" d="M707.17,-1037.09C766.28,-1027.77 848.29,-1014.28 920,-1000.48 938.25,-996.97 957.99,-992.81 976.05,-988.86"/>
<polygon fill="black" stroke="black" points="976.56,-992.33 985.57,-986.76 975.06,-985.49 976.56,-992.33"/>
<text xml:space="preserve" text-anchor="middle" x="832.88" y="-1032.95" font-family="Times,serif" font-size="14.00">defines workflow</text>
</g>
<!-- task_runner -->
<g id="node6" class="node">
<title>task_runner</title>
<polygon fill="lightblue" stroke="black" points="1461.25,-1070.23 1251,-1070.23 1251,-1012.73 1461.25,-1012.73 1461.25,-1070.23"/>
<text xml:space="preserve" text-anchor="middle" x="1356.12" y="-1052.93" font-family="Times,serif" font-size="14.00">Task Runner</text>
<text xml:space="preserve" text-anchor="middle" x="1356.12" y="-1036.43" font-family="Times,serif" font-size="14.00">Workflow</text>
<text xml:space="preserve" text-anchor="middle" x="1356.12" y="-1019.93" font-family="Times,serif" font-size="14.00">(TASK_RUNNER_WORKFLOW)</text>
</g>
<!-- task_runner&#45;&gt;communication -->
<g id="edge39" class="edge">
<title>task_runner&#45;&gt;communication</title>
<path fill="none" stroke="black" d="M1461.62,-1027.93C1495.94,-1023.28 1534.26,-1017.88 1569.25,-1012.48 1571.3,-1012.16 1573.38,-1011.83 1575.48,-1011.5"/>
<polygon fill="black" stroke="black" points="1576.02,-1014.96 1585.33,-1009.9 1574.89,-1008.05 1576.02,-1014.96"/>
<text xml:space="preserve" text-anchor="middle" x="1524.25" y="-1028.35" font-family="Times,serif" font-size="14.00">defines handoffs</text>
</g>
<!-- coordination -->
<g id="node7" class="node">
<title>coordination</title>
<polygon fill="lightblue" stroke="black" points="1132.12,-1070.23 948.12,-1070.23 948.12,-1012.73 1132.12,-1012.73 1132.12,-1070.23"/>
<text xml:space="preserve" text-anchor="middle" x="1040.12" y="-1052.93" font-family="Times,serif" font-size="14.00">Agent Coordination</text>
<text xml:space="preserve" text-anchor="middle" x="1040.12" y="-1036.43" font-family="Times,serif" font-size="14.00">Pattern</text>
<text xml:space="preserve" text-anchor="middle" x="1040.12" y="-1019.93" font-family="Times,serif" font-size="14.00">(MASTER_COORDINATOR)</text>
</g>
<!-- coordination&#45;&gt;task_runner -->
<g id="edge38" class="edge">
<title>coordination&#45;&gt;task_runner</title>
<path fill="none" stroke="black" d="M1132.37,-1041.48C1165.78,-1041.48 1204.05,-1041.48 1239.32,-1041.48"/>
<polygon fill="black" stroke="black" points="1239.15,-1044.98 1249.15,-1041.48 1239.15,-1037.98 1239.15,-1044.98"/>
<text xml:space="preserve" text-anchor="middle" x="1196.62" y="-1044.68" font-family="Times,serif" font-size="14.00">uses</text>
</g>
<!-- maestro_coord -->
<g id="node25" class="node">
<title>maestro_coord</title>
<polygon fill="plum" stroke="black" points="1108.12,-844.98 972.12,-844.98 972.12,-803.98 1108.12,-803.98 1108.12,-844.98"/>
<text xml:space="preserve" text-anchor="middle" x="1040.12" y="-827.68" font-family="Times,serif" font-size="14.00">Maestro Coordination</text>
<text xml:space="preserve" text-anchor="middle" x="1040.12" y="-811.18" font-family="Times,serif" font-size="14.00">(maestro/README)</text>
</g>
<!-- coordination&#45;&gt;maestro_coord -->
<g id="edge37" class="edge">
<title>coordination&#45;&gt;maestro_coord</title>
<path fill="none" stroke="black" d="M947.77,-1012.79C943.15,-1010.23 938.69,-1007.47 934.5,-1004.48 789.33,-901.04 813.63,-889.93 835.75,-863.23 865.31,-827.53 916.59,-817.89 960.39,-817.15"/>
<polygon fill="black" stroke="black" points="960.12,-820.65 970.12,-817.14 960.12,-813.65 960.12,-820.65"/>
<text xml:space="preserve" text-anchor="middle" x="832.88" y="-866.43" font-family="Times,serif" font-size="14.00">implements</text>
</g>
<!-- db_pk -->
<g id="node8" class="node">
<title>db_pk</title>
<polygon fill="lightgreen" stroke="black" points="122.38,-630.98 17.12,-630.98 17.12,-589.98 122.38,-589.98 122.38,-630.98"/>
<text xml:space="preserve" text-anchor="middle" x="69.75" y="-613.68" font-family="Times,serif" font-size="14.00">Primary Keys</text>
<text xml:space="preserve" text-anchor="middle" x="69.75" y="-597.18" font-family="Times,serif" font-size="14.00">(GUIDELINES)</text>
</g>
<!-- ash_resource -->
<g id="node9" class="node">
<title>ash_resource</title>
<polygon fill="lightgreen" stroke="black" points="374.25,-630.98 269,-630.98 269,-589.98 374.25,-589.98 374.25,-630.98"/>
<text xml:space="preserve" text-anchor="middle" x="321.62" y="-613.68" font-family="Times,serif" font-size="14.00">Ash Resources</text>
<text xml:space="preserve" text-anchor="middle" x="321.62" y="-597.18" font-family="Times,serif" font-size="14.00">(GUIDELINES)</text>
</g>
<!-- db_pk&#45;&gt;ash_resource -->
<g id="edge1" class="edge">
<title>db_pk&#45;&gt;ash_resource</title>
<path fill="none" stroke="black" d="M122.83,-610.48C161.92,-610.48 215.64,-610.48 257.23,-610.48"/>
<polygon fill="black" stroke="black" points="257.1,-613.98 267.1,-610.48 257.1,-606.98 257.1,-613.98"/>
<text xml:space="preserve" text-anchor="middle" x="179" y="-613.68" font-family="Times,serif" font-size="14.00">used in</text>
</g>
<!-- calvin_domain -->
<g id="node23" class="node">
<title>calvin_domain</title>
<polygon fill="plum" stroke="black" points="1415.88,-785.98 1296.38,-785.98 1296.38,-744.98 1415.88,-744.98 1415.88,-785.98"/>
<text xml:space="preserve" text-anchor="middle" x="1356.12" y="-768.68" font-family="Times,serif" font-size="14.00">Calvin Business</text>
<text xml:space="preserve" text-anchor="middle" x="1356.12" y="-752.18" font-family="Times,serif" font-size="14.00">(calvin/README)</text>
</g>
<!-- db_pk&#45;&gt;calvin_domain -->
<g id="edge26" class="edge">
<title>db_pk&#45;&gt;calvin_domain</title>
<path fill="none" stroke="black" d="M122.44,-589.59C191.55,-561.79 317.96,-511.38 426.75,-470.48 461.23,-457.51 482.3,-471.68 504.75,-442.48 533.5,-405.08 495.72,-269.64 522.75,-230.98 687.89,5.2 865.95,42.44 1142.25,-39.48 1188.37,-53.15 1208.96,-56.81 1233,-98.48 1252.13,-131.63 1244.07,-404.84 1251,-442.48 1271.3,-552.75 1318.96,-677.58 1342.09,-734.37"/>
<polygon fill="black" stroke="black" points="1338.76,-735.48 1345.79,-743.4 1345.23,-732.82 1338.76,-735.48"/>
<text xml:space="preserve" text-anchor="middle" x="625.25" y="-234.18" font-family="Times,serif" font-size="14.00">applied in</text>
</g>
<!-- sanjuan_domain -->
<g id="node24" class="node">
<title>sanjuan_domain</title>
<polygon fill="plum" stroke="black" points="1420,-844.98 1292.25,-844.98 1292.25,-803.98 1420,-803.98 1420,-844.98"/>
<text xml:space="preserve" text-anchor="middle" x="1356.12" y="-827.68" font-family="Times,serif" font-size="14.00">SanJuan Analytics</text>
<text xml:space="preserve" text-anchor="middle" x="1356.12" y="-811.18" font-family="Times,serif" font-size="14.00">(sanjuan/README)</text>
</g>
<!-- db_pk&#45;&gt;sanjuan_domain -->
<g id="edge27" class="edge">
<title>db_pk&#45;&gt;sanjuan_domain</title>
<path fill="none" stroke="black" d="M113.56,-631.42C179.93,-663.59 311.99,-726.37 426.75,-773.48 638.15,-860.25 706.33,-841.77 934.5,-854.48 1026.69,-859.61 1050.03,-859.04 1142.25,-854.48 1188.59,-852.19 1240.12,-845.05 1280.88,-838.31"/>
<polygon fill="black" stroke="black" points="1281.3,-841.78 1290.58,-836.67 1280.14,-834.88 1281.3,-841.78"/>
<text xml:space="preserve" text-anchor="middle" x="625.25" y="-849.15" font-family="Times,serif" font-size="14.00">applied in</text>
</g>
<!-- poly_relations -->
<g id="node10" class="node">
<title>poly_relations</title>
<polygon fill="lightgreen" stroke="black" points="726.25,-636.98 524.25,-636.98 524.25,-595.98 726.25,-595.98 726.25,-636.98"/>
<text xml:space="preserve" text-anchor="middle" x="625.25" y="-619.68" font-family="Times,serif" font-size="14.00">Polymorphic Relations</text>
<text xml:space="preserve" text-anchor="middle" x="625.25" y="-603.18" font-family="Times,serif" font-size="14.00">(POLYMORPHIC_RELATIONS)</text>
</g>
<!-- ash_resource&#45;&gt;poly_relations -->
<g id="edge2" class="edge">
<title>ash_resource&#45;&gt;poly_relations</title>
<path fill="none" stroke="black" d="M374.48,-611.51C412.37,-612.26 465.18,-613.31 512.49,-614.25"/>
<polygon fill="black" stroke="black" points="512.17,-617.75 522.24,-614.45 512.31,-610.75 512.17,-617.75"/>
<text xml:space="preserve" text-anchor="middle" x="465.75" y="-617.21" font-family="Times,serif" font-size="14.00">implements</text>
</g>
<!-- migrations -->
<g id="node11" class="node">
<title>migrations</title>
<polygon fill="lightgreen" stroke="black" points="1092.75,-636.98 987.5,-636.98 987.5,-595.98 1092.75,-595.98 1092.75,-636.98"/>
<text xml:space="preserve" text-anchor="middle" x="1040.12" y="-619.68" font-family="Times,serif" font-size="14.00">Data Migrations</text>
<text xml:space="preserve" text-anchor="middle" x="1040.12" y="-603.18" font-family="Times,serif" font-size="14.00">(GUIDELINES)</text>
</g>
<!-- ash_resource&#45;&gt;migrations -->
<g id="edge3" class="edge">
<title>ash_resource&#45;&gt;migrations</title>
<path fill="none" stroke="black" d="M374.74,-610.09C420.49,-608.95 483.02,-605.2 504.75,-593.48 516.02,-587.4 511.21,-576.53 522.75,-570.98 604.87,-531.51 636.88,-564.37 727.75,-570.98 814.18,-577.26 913.05,-593.23 975.76,-604.46"/>
<polygon fill="black" stroke="black" points="975.09,-607.9 985.55,-606.23 976.33,-601.01 975.09,-607.9"/>
<text xml:space="preserve" text-anchor="middle" x="625.25" y="-574.18" font-family="Times,serif" font-size="14.00">creates</text>
</g>
<!-- data_modification -->
<g id="node12" class="node">
<title>data_modification</title>
<polygon fill="lightgreen" stroke="black" points="727.75,-695.98 522.75,-695.98 522.75,-654.98 727.75,-654.98 727.75,-695.98"/>
<text xml:space="preserve" text-anchor="middle" x="625.25" y="-678.68" font-family="Times,serif" font-size="14.00">Data Modification</text>
<text xml:space="preserve" text-anchor="middle" x="625.25" y="-662.18" font-family="Times,serif" font-size="14.00">(guides/DATA_MODIFICATION)</text>
</g>
<!-- ash_resource&#45;&gt;data_modification -->
<g id="edge4" class="edge">
<title>ash_resource&#45;&gt;data_modification</title>
<path fill="none" stroke="black" d="M374.75,-622.73C391.35,-626.56 409.81,-630.77 426.75,-634.48 454.16,-640.48 483.75,-646.74 511.48,-652.51"/>
<polygon fill="black" stroke="black" points="510.43,-655.87 520.93,-654.47 511.85,-649.01 510.43,-655.87"/>
<text xml:space="preserve" text-anchor="middle" x="465.75" y="-670.37" font-family="Times,serif" font-size="14.00">ALWAYS use</text>
<text xml:space="preserve" text-anchor="middle" x="465.75" y="-653.87" font-family="Times,serif" font-size="14.00">never SQL</text>
</g>
<!-- liveview -->
<g id="node15" class="node">
<title>liveview</title>
<polygon fill="lightyellow" stroke="black" points="671.12,-351.98 579.38,-351.98 579.38,-310.98 671.12,-310.98 671.12,-351.98"/>
<text xml:space="preserve" text-anchor="middle" x="625.25" y="-334.68" font-family="Times,serif" font-size="14.00">LiveView</text>
<text xml:space="preserve" text-anchor="middle" x="625.25" y="-318.18" font-family="Times,serif" font-size="14.00">(LIVEVIEW)</text>
</g>
<!-- ash_resource&#45;&gt;liveview -->
<g id="edge23" class="edge">
<title>ash_resource&#45;&gt;liveview</title>
<path fill="none" stroke="black" d="M335.45,-589.54C352.88,-562.82 386.53,-516.95 426.75,-490.98 457.17,-471.34 474.29,-487.05 504.75,-467.48 507.7,-465.58 564.63,-400.21 598.84,-360.8"/>
<polygon fill="black" stroke="black" points="601.27,-363.34 605.18,-353.49 595.98,-358.75 601.27,-363.34"/>
<text xml:space="preserve" text-anchor="middle" x="465.75" y="-494.18" font-family="Times,serif" font-size="14.00">displayed in</text>
</g>
<!-- javascript -->
<g id="node16" class="node">
<title>javascript</title>
<polygon fill="lightyellow" stroke="black" points="920,-393.98 745.75,-393.98 745.75,-352.98 920,-352.98 920,-393.98"/>
<text xml:space="preserve" text-anchor="middle" x="832.88" y="-376.68" font-family="Times,serif" font-size="14.00">JavaScript</text>
<text xml:space="preserve" text-anchor="middle" x="832.88" y="-360.18" font-family="Times,serif" font-size="14.00">(guides/LIVEVIEW_VS_JS)</text>
</g>
<!-- ash_resource&#45;&gt;javascript -->
<g id="edge24" class="edge">
<title>ash_resource&#45;&gt;javascript</title>
<path fill="none" stroke="black" d="M344.97,-589.56C365.03,-571.78 395.96,-546.71 426.75,-530.98 458.99,-514.5 474.41,-527.24 504.75,-507.48 515.05,-500.77 512.65,-493.48 522.75,-486.48 586.78,-442.08 670.3,-412.92 734.39,-395.36"/>
<polygon fill="black" stroke="black" points="735.1,-398.79 743.85,-392.82 733.28,-392.03 735.1,-398.79"/>
<text xml:space="preserve" text-anchor="middle" x="465.75" y="-534.18" font-family="Times,serif" font-size="14.00">fetched by</text>
</g>
<!-- markdown_editor -->
<g id="node19" class="node">
<title>markdown_editor</title>
<polygon fill="lightyellow" stroke="black" points="1142.25,-405.98 938,-405.98 938,-364.98 1142.25,-364.98 1142.25,-405.98"/>
<text xml:space="preserve" text-anchor="middle" x="1040.12" y="-388.68" font-family="Times,serif" font-size="14.00">Markdown Editor</text>
<text xml:space="preserve" text-anchor="middle" x="1040.12" y="-372.18" font-family="Times,serif" font-size="14.00">(guides/MARKDOWN_EDITOR)</text>
</g>
<!-- ash_resource&#45;&gt;markdown_editor -->
<g id="edge16" class="edge">
<title>ash_resource&#45;&gt;markdown_editor</title>
<path fill="none" stroke="black" d="M344.31,-631.17C364.18,-648.91 395.22,-673.73 426.75,-687.48 549.6,-741.03 595.66,-728.15 727.75,-705.48 817.08,-690.15 862.77,-707.76 920,-637.48 950.02,-600.61 916.91,-575.66 934.5,-531.48 952.4,-486.51 987.05,-442.41 1011.56,-414.64"/>
<polygon fill="black" stroke="black" points="1014.04,-417.13 1018.12,-407.35 1008.83,-412.45 1014.04,-417.13"/>
<text xml:space="preserve" text-anchor="middle" x="625.25" y="-728.29" font-family="Times,serif" font-size="14.00">field type</text>
</g>
<!-- fly -->
<g id="node22" class="node">
<title>fly</title>
<polygon fill="lightcoral" stroke="black" points="1114.5,-210.98 965.75,-210.98 965.75,-169.98 1114.5,-169.98 1114.5,-210.98"/>
<text xml:space="preserve" text-anchor="middle" x="1040.12" y="-193.68" font-family="Times,serif" font-size="14.00">Fly Deployment</text>
<text xml:space="preserve" text-anchor="middle" x="1040.12" y="-177.18" font-family="Times,serif" font-size="14.00">(FLY_DEPLOYMENT)</text>
</g>
<!-- ash_resource&#45;&gt;fly -->
<g id="edge44" class="edge">
<title>ash_resource&#45;&gt;fly</title>
<path fill="none" stroke="black" d="M374.35,-603.63C420.87,-596.58 484.86,-584.39 504.75,-568.48 519.18,-556.93 508.02,-542.16 522.75,-530.98 602.92,-470.12 646.5,-508.24 745.75,-491.48 784.42,-484.95 893.58,-492.46 920,-463.48 952.41,-427.93 908.56,-287.99 934.5,-247.48 942.54,-234.91 954.36,-224.91 967.18,-217.01"/>
<polygon fill="black" stroke="black" points="968.84,-220.09 975.82,-212.12 965.39,-214 968.84,-220.09"/>
<text xml:space="preserve" text-anchor="middle" x="625.25" y="-534.18" font-family="Times,serif" font-size="14.00">deployed via</text>
</g>
<!-- poly_relations&#45;&gt;migrations -->
<g id="edge5" class="edge">
<title>poly_relations&#45;&gt;migrations</title>
<path fill="none" stroke="black" d="M726.72,-616.48C804.46,-616.48 909.69,-616.48 975.99,-616.48"/>
<polygon fill="black" stroke="black" points="975.58,-619.98 985.58,-616.48 975.58,-612.98 975.58,-619.98"/>
<text xml:space="preserve" text-anchor="middle" x="832.88" y="-619.68" font-family="Times,serif" font-size="14.00">requires</text>
</g>
<!-- poly_relations&#45;&gt;liveview -->
<g id="edge25" class="edge">
<title>poly_relations&#45;&gt;liveview</title>
<path fill="none" stroke="black" d="M523.83,-608.01C498.88,-600.83 474.89,-588.52 459.33,-567.73 403.66,-493.34 515.62,-402.8 581.63,-358.51"/>
<polygon fill="black" stroke="black" points="583.33,-361.58 589.75,-353.15 579.47,-355.74 583.33,-361.58"/>
<text xml:space="preserve" text-anchor="middle" x="465.75" y="-554.43" font-family="Times,serif" font-size="14.00">displayed in</text>
</g>
<!-- poly_relations&#45;&gt;maestro_coord -->
<g id="edge28" class="edge">
<title>poly_relations&#45;&gt;maestro_coord</title>
<path fill="none" stroke="black" d="M717.51,-637.35C721.22,-640.04 724.67,-643.07 727.75,-646.48 756.58,-678.35 716.78,-709.73 745.75,-741.48 774.57,-773.06 883.85,-797.84 960.56,-811.82"/>
<polygon fill="black" stroke="black" points="959.68,-815.22 970.14,-813.54 960.92,-808.33 959.68,-815.22"/>
<text xml:space="preserve" text-anchor="middle" x="832.88" y="-806.65" font-family="Times,serif" font-size="14.00">used in tasks</text>
</g>
<!-- migrations&#45;&gt;verification -->
<g id="edge6" class="edge">
<title>migrations&#45;&gt;verification</title>
<path fill="none" stroke="black" d="M1093.12,-628.7C1137.96,-642.15 1200.46,-668.45 1233,-715.98 1274.8,-777.03 1217.16,-815.68 1251,-881.48 1264.73,-908.16 1289.53,-930.79 1311.49,-947.04"/>
<polygon fill="black" stroke="black" points="1309.28,-949.77 1319.45,-952.73 1313.35,-944.07 1309.28,-949.77"/>
<text xml:space="preserve" text-anchor="middle" x="1196.62" y="-719.18" font-family="Times,serif" font-size="14.00">requires</text>
</g>
<!-- data_modification&#45;&gt;verification -->
<g id="edge7" class="edge">
<title>data_modification&#45;&gt;verification</title>
<path fill="none" stroke="black" d="M722.87,-696.4C724.59,-697.98 726.22,-699.67 727.75,-701.48 759.25,-738.79 710.19,-887.01 745.75,-920.48 753.77,-928.03 1131.31,-927.7 1142.25,-928.98 1191.94,-934.77 1247.15,-946.73 1288.9,-956.94"/>
<polygon fill="black" stroke="black" points="1288.01,-960.33 1298.55,-959.34 1289.69,-953.53 1288.01,-960.33"/>
<text xml:space="preserve" text-anchor="middle" x="1040.12" y="-932.18" font-family="Times,serif" font-size="14.00">ensures validity</text>
</g>
<!-- phoenix -->
<g id="node13" class="node">
<title>phoenix</title>
<polygon fill="lightyellow" stroke="black" points="123.5,-364.98 16,-364.98 16,-323.98 123.5,-323.98 123.5,-364.98"/>
<text xml:space="preserve" text-anchor="middle" x="69.75" y="-347.68" font-family="Times,serif" font-size="14.00">Phoenix Patterns</text>
<text xml:space="preserve" text-anchor="middle" x="69.75" y="-331.18" font-family="Times,serif" font-size="14.00">(LIVEVIEW)</text>
</g>
<!-- ui_decision -->
<g id="node14" class="node">
<title>ui_decision</title>
<polygon fill="lightyellow" stroke="black" points="408.75,-373.23 234.5,-373.23 234.5,-315.73 408.75,-315.73 408.75,-373.23"/>
<text xml:space="preserve" text-anchor="middle" x="321.62" y="-355.93" font-family="Times,serif" font-size="14.00">LiveView vs JS</text>
<text xml:space="preserve" text-anchor="middle" x="321.62" y="-339.43" font-family="Times,serif" font-size="14.00">Decision Point</text>
<text xml:space="preserve" text-anchor="middle" x="321.62" y="-322.93" font-family="Times,serif" font-size="14.00">(guides/LIVEVIEW_VS_JS)</text>
</g>
<!-- phoenix&#45;&gt;ui_decision -->
<g id="edge8" class="edge">
<title>phoenix&#45;&gt;ui_decision</title>
<path fill="none" stroke="black" d="M123.74,-344.48C152.57,-344.48 189.16,-344.48 222.95,-344.48"/>
<polygon fill="black" stroke="black" points="222.77,-347.98 232.77,-344.48 222.77,-340.98 222.77,-347.98"/>
<text xml:space="preserve" text-anchor="middle" x="179" y="-347.68" font-family="Times,serif" font-size="14.00">FIRST decide</text>
</g>
<!-- ui_decision&#45;&gt;liveview -->
<g id="edge9" class="edge">
<title>ui_decision&#45;&gt;liveview</title>
<path fill="none" stroke="black" d="M409.23,-320.27C415.13,-319.16 421.01,-318.21 426.75,-317.48 474.08,-311.44 528.14,-316.07 567.73,-321.57"/>
<polygon fill="black" stroke="black" points="567.11,-325.01 577.51,-322.99 568.12,-318.09 567.11,-325.01"/>
<text xml:space="preserve" text-anchor="middle" x="465.75" y="-337.18" font-family="Times,serif" font-size="14.00">if real&#45;time</text>
<text xml:space="preserve" text-anchor="middle" x="465.75" y="-320.68" font-family="Times,serif" font-size="14.00">or multi&#45;user</text>
</g>
<!-- ui_decision&#45;&gt;javascript -->
<g id="edge10" class="edge">
<title>ui_decision&#45;&gt;javascript</title>
<path fill="none" stroke="black" d="M409.25,-352.71C444.44,-355.83 485.51,-359.17 522.75,-361.48 593.53,-365.86 673.52,-368.91 734.4,-370.84"/>
<polygon fill="black" stroke="black" points="733.93,-374.33 744.03,-371.14 734.14,-367.33 733.93,-374.33"/>
<text xml:space="preserve" text-anchor="middle" x="465.75" y="-379.91" font-family="Times,serif" font-size="14.00">if client&#45;side</text>
<text xml:space="preserve" text-anchor="middle" x="465.75" y="-363.41" font-family="Times,serif" font-size="14.00">or simple</text>
</g>
<!-- daisyui -->
<g id="node17" class="node">
<title>daisyui</title>
<polygon fill="lightyellow" stroke="black" points="1423.38,-343.98 1288.88,-343.98 1288.88,-302.98 1423.38,-302.98 1423.38,-343.98"/>
<text xml:space="preserve" text-anchor="middle" x="1356.12" y="-326.68" font-family="Times,serif" font-size="14.00">DaisyUI Components</text>
<text xml:space="preserve" text-anchor="middle" x="1356.12" y="-310.18" font-family="Times,serif" font-size="14.00">(DAISYUI)</text>
</g>
<!-- liveview&#45;&gt;daisyui -->
<g id="edge11" class="edge">
<title>liveview&#45;&gt;daisyui</title>
<path fill="none" stroke="black" d="M671.59,-315.23C693.66,-308.08 720.77,-300.43 745.75,-296.48 919.82,-268.92 966.52,-277.64 1142.25,-290.98 1187.3,-294.4 1237.26,-301.83 1277.45,-308.73"/>
<polygon fill="black" stroke="black" points="1276.84,-312.17 1287.29,-310.44 1278.04,-305.28 1276.84,-312.17"/>
<text xml:space="preserve" text-anchor="middle" x="1040.12" y="-294.18" font-family="Times,serif" font-size="14.00">styles with</text>
</g>
<!-- liveview&#45;&gt;markdown_editor -->
<g id="edge15" class="edge">
<title>liveview&#45;&gt;markdown_editor</title>
<path fill="none" stroke="black" d="M671.42,-317.85C732.17,-302.29 841.61,-284.24 920,-327.98 930.72,-333.96 924.85,-343.89 934.5,-351.48 938.03,-354.25 941.8,-356.8 945.72,-359.15"/>
<polygon fill="black" stroke="black" points="943.98,-362.19 954.44,-363.85 947.3,-356.03 943.98,-362.19"/>
<text xml:space="preserve" text-anchor="middle" x="832.88" y="-331.18" font-family="Times,serif" font-size="14.00">can use</text>
</g>
<!-- live_table -->
<g id="node21" class="node">
<title>live_table</title>
<polygon fill="lightcoral" stroke="black" points="1093.12,-151.98 987.12,-151.98 987.12,-110.98 1093.12,-110.98 1093.12,-151.98"/>
<text xml:space="preserve" text-anchor="middle" x="1040.12" y="-134.68" font-family="Times,serif" font-size="14.00">LiveTable</text>
<text xml:space="preserve" text-anchor="middle" x="1040.12" y="-118.18" font-family="Times,serif" font-size="14.00">(LIVE_TABLE)</text>
</g>
<!-- liveview&#45;&gt;live_table -->
<g id="edge18" class="edge">
<title>liveview&#45;&gt;live_table</title>
<path fill="none" stroke="black" d="M637.4,-310.48C655.55,-278.51 694.66,-218.14 745.75,-187.98 816.81,-146.02 912.86,-134.39 975.39,-131.6"/>
<polygon fill="black" stroke="black" points="975.29,-135.11 985.15,-131.23 975.02,-128.11 975.29,-135.11"/>
<text xml:space="preserve" text-anchor="middle" x="832.88" y="-191.18" font-family="Times,serif" font-size="14.00">can use</text>
</g>
<!-- liveview&#45;&gt;fly -->
<g id="edge43" class="edge">
<title>liveview&#45;&gt;fly</title>
<path fill="none" stroke="black" d="M653.25,-310.59C676.55,-293.53 711.73,-270.03 745.75,-255.98 813.05,-228.19 894.12,-211.24 953.97,-201.56"/>
<polygon fill="black" stroke="black" points="954.44,-205.03 963.77,-200.02 953.35,-198.12 954.44,-205.03"/>
<text xml:space="preserve" text-anchor="middle" x="832.88" y="-259.18" font-family="Times,serif" font-size="14.00">deployed via</text>
</g>
<!-- javascript&#45;&gt;daisyui -->
<g id="edge12" class="edge">
<title>javascript&#45;&gt;daisyui</title>
<path fill="none" stroke="black" d="M909.86,-352.56C913.32,-351.26 916.71,-349.89 920,-348.48 926.86,-345.52 927.33,-342.08 934.5,-339.98 1050.17,-306.12 1191.37,-309.04 1277.21,-315.4"/>
<polygon fill="black" stroke="black" points="1276.93,-318.89 1287.18,-316.18 1277.48,-311.91 1276.93,-318.89"/>
<text xml:space="preserve" text-anchor="middle" x="1040.12" y="-343.18" font-family="Times,serif" font-size="14.00">styles with</text>
</g>
<!-- css -->
<g id="node18" class="node">
<title>css</title>
<polygon fill="lightyellow" stroke="black" points="1688.38,-312.98 1591.38,-312.98 1591.38,-271.98 1688.38,-271.98 1688.38,-312.98"/>
<text xml:space="preserve" text-anchor="middle" x="1639.88" y="-295.68" font-family="Times,serif" font-size="14.00">CSS Standards</text>
<text xml:space="preserve" text-anchor="middle" x="1639.88" y="-279.18" font-family="Times,serif" font-size="14.00">(DAISYUI)</text>
</g>
<!-- daisyui&#45;&gt;css -->
<g id="edge13" class="edge">
<title>daisyui&#45;&gt;css</title>
<path fill="none" stroke="black" d="M1423.54,-316.17C1470.93,-310.96 1534.11,-304 1579.76,-298.98"/>
<polygon fill="black" stroke="black" points="1579.91,-302.49 1589.46,-297.91 1579.14,-295.53 1579.91,-302.49"/>
<text xml:space="preserve" text-anchor="middle" x="1524.25" y="-313.03" font-family="Times,serif" font-size="14.00">defines</text>
</g>
<!-- css_linter -->
<g id="node20" class="node">
<title>css_linter</title>
<polygon fill="lightcoral" stroke="black" points="1084.5,-92.98 995.75,-92.98 995.75,-51.98 1084.5,-51.98 1084.5,-92.98"/>
<text xml:space="preserve" text-anchor="middle" x="1040.12" y="-75.68" font-family="Times,serif" font-size="14.00">CSS Linter</text>
<text xml:space="preserve" text-anchor="middle" x="1040.12" y="-59.18" font-family="Times,serif" font-size="14.00">(usage_rules)</text>
</g>
<!-- css&#45;&gt;css_linter -->
<g id="edge14" class="edge">
<title>css&#45;&gt;css_linter</title>
<path fill="none" stroke="black" d="M1604.53,-271.48C1536.41,-230.89 1378.18,-141.84 1233,-98.48 1188,-85.04 1134.97,-78.52 1096.08,-75.38"/>
<polygon fill="black" stroke="black" points="1096.74,-71.92 1086.5,-74.65 1096.21,-78.9 1096.74,-71.92"/>
<text xml:space="preserve" text-anchor="middle" x="1356.12" y="-194.69" font-family="Times,serif" font-size="14.00">analyzed by</text>
</g>
<!-- markdown_editor&#45;&gt;daisyui -->
<g id="edge17" class="edge">
<title>markdown_editor&#45;&gt;daisyui</title>
<path fill="none" stroke="black" d="M1142.64,-365.43C1186.37,-356.8 1236.69,-346.86 1277.38,-338.83"/>
<polygon fill="black" stroke="black" points="1277.97,-342.28 1287.1,-336.91 1276.61,-335.41 1277.97,-342.28"/>
<text xml:space="preserve" text-anchor="middle" x="1196.62" y="-365.05" font-family="Times,serif" font-size="14.00">styled with</text>
</g>
<!-- css_linter&#45;&gt;maestro_coord -->
<g id="edge40" class="edge">
<title>css_linter&#45;&gt;maestro_coord</title>
<path fill="none" stroke="black" d="M995.32,-75.38C974.36,-78.96 950.54,-86.57 934.5,-102.48 816.48,-219.55 809.55,-298.28 833.88,-462.73 856.48,-615.57 823.85,-687.64 934.5,-795.48 942,-802.79 951.16,-808.29 960.93,-812.44"/>
<polygon fill="black" stroke="black" points="959.69,-815.71 970.28,-815.89 962.11,-809.14 959.69,-815.71"/>
<text xml:space="preserve" text-anchor="middle" x="832.88" y="-449.43" font-family="Times,serif" font-size="14.00">integrated in</text>
</g>
<!-- live_table&#45;&gt;daisyui -->
<g id="edge19" class="edge">
<title>live_table&#45;&gt;daisyui</title>
<path fill="none" stroke="black" d="M1093.42,-118.02C1141.94,-106.79 1210.02,-94.59 1233,-107.98 1301.45,-147.86 1334.63,-241.95 1347.85,-291.57"/>
<polygon fill="black" stroke="black" points="1344.43,-292.3 1350.28,-301.13 1351.21,-290.57 1344.43,-292.3"/>
<text xml:space="preserve" text-anchor="middle" x="1196.62" y="-111.18" font-family="Times,serif" font-size="14.00">styled with</text>
</g>
<!-- live_table&#45;&gt;calvin_domain -->
<g id="edge42" class="edge">
<title>live_table&#45;&gt;calvin_domain</title>
<path fill="none" stroke="black" d="M1093.49,-128.63C1143.6,-127.16 1214.26,-128.77 1233,-147.98 1255.89,-171.44 1244.92,-410.26 1251,-442.48 1271.79,-552.66 1319.21,-677.53 1342.18,-734.36"/>
<polygon fill="black" stroke="black" points="1338.85,-735.45 1345.86,-743.39 1345.33,-732.81 1338.85,-735.45"/>
<text xml:space="preserve" text-anchor="middle" x="1196.62" y="-151.18" font-family="Times,serif" font-size="14.00">used in</text>
</g>
<!-- live_table&#45;&gt;sanjuan_domain -->
<g id="edge41" class="edge">
<title>live_table&#45;&gt;sanjuan_domain</title>
<path fill="none" stroke="black" d="M1093.52,-146.1C1149.57,-161.87 1230.78,-185.1 1233,-187.98 1274.24,-241.45 1209.36,-742.31 1251,-795.48 1258.66,-805.26 1269.33,-811.92 1280.93,-816.43"/>
<polygon fill="black" stroke="black" points="1279.76,-819.73 1290.35,-819.51 1281.94,-813.07 1279.76,-819.73"/>
<text xml:space="preserve" text-anchor="middle" x="1196.62" y="-191.18" font-family="Times,serif" font-size="14.00">used in</text>
</g>
<!-- fly&#45;&gt;verification -->
<g id="edge45" class="edge">
<title>fly&#45;&gt;verification</title>
<path fill="none" stroke="black" d="M1114.92,-201.59C1165.63,-209.97 1225.16,-221.58 1233,-230.98 1256.16,-258.74 1235.77,-848.69 1251,-881.48 1263.55,-908.5 1288.06,-931.02 1310.15,-947.12"/>
<polygon fill="black" stroke="black" points="1307.99,-949.88 1318.18,-952.76 1312.01,-944.15 1307.99,-949.88"/>
<text xml:space="preserve" text-anchor="middle" x="1196.62" y="-234.18" font-family="Times,serif" font-size="14.00">tested after</text>
</g>
<!-- maestro_coord&#45;&gt;git_maestro -->
<g id="edge35" class="edge">
<title>maestro_coord&#45;&gt;git_maestro</title>
<path fill="none" stroke="black" d="M997.43,-845.4C974.78,-856.42 946.14,-869.83 920,-880.48 857.41,-905.97 785.8,-930.92 728.94,-949.77"/>
<polygon fill="black" stroke="black" points="727.98,-946.4 719.58,-952.86 730.17,-953.05 727.98,-946.4"/>
<text xml:space="preserve" text-anchor="middle" x="832.88" y="-947.12" font-family="Times,serif" font-size="14.00">assigns git tasks</text>
</g>
<!-- maestro_coord&#45;&gt;calvin_domain -->
<g id="edge33" class="edge">
<title>maestro_coord&#45;&gt;calvin_domain</title>
<path fill="none" stroke="black" d="M1108.49,-811.82C1160.45,-802.06 1232.11,-788.59 1284.8,-778.69"/>
<polygon fill="black" stroke="black" points="1285.4,-782.14 1294.59,-776.85 1284.11,-775.26 1285.4,-782.14"/>
<text xml:space="preserve" text-anchor="middle" x="1196.62" y="-805.2" font-family="Times,serif" font-size="14.00">coordinates</text>
</g>
<!-- maestro_coord&#45;&gt;sanjuan_domain -->
<g id="edge34" class="edge">
<title>maestro_coord&#45;&gt;sanjuan_domain</title>
<path fill="none" stroke="black" d="M1108.49,-824.48C1159.1,-824.48 1228.41,-824.48 1280.67,-824.48"/>
<polygon fill="black" stroke="black" points="1280.37,-827.98 1290.37,-824.48 1280.37,-820.98 1280.37,-827.98"/>
<text xml:space="preserve" text-anchor="middle" x="1196.62" y="-827.68" font-family="Times,serif" font-size="14.00">coordinates</text>
</g>
<!-- circle_learnings -->
<g id="node26" class="node">
<title>circle_learnings</title>
<polygon fill="plum" stroke="black" points="1137.75,-785.98 942.5,-785.98 942.5,-744.98 1137.75,-744.98 1137.75,-785.98"/>
<text xml:space="preserve" text-anchor="middle" x="1040.12" y="-768.68" font-family="Times,serif" font-size="14.00">Circle Patterns</text>
<text xml:space="preserve" text-anchor="middle" x="1040.12" y="-752.18" font-family="Times,serif" font-size="14.00">(guides/CIRCLE_LEARNINGS)</text>
</g>
<!-- circle_learnings&#45;&gt;ash_resource -->
<g id="edge31" class="edge">
<title>circle_learnings&#45;&gt;ash_resource</title>
<path fill="none" stroke="black" d="M942.04,-779.61C934.59,-780.36 927.18,-781 920,-781.48 810.36,-788.81 522.47,-800.44 426.75,-746.48 384.39,-722.6 353.66,-673.74 336.99,-641.55"/>
<polygon fill="black" stroke="black" points="340.16,-640.07 332.56,-632.69 333.9,-643.2 340.16,-640.07"/>
<text xml:space="preserve" text-anchor="middle" x="625.25" y="-791.07" font-family="Times,serif" font-size="14.00">junction tables</text>
</g>
<!-- circle_learnings&#45;&gt;data_modification -->
<g id="edge32" class="edge">
<title>circle_learnings&#45;&gt;data_modification</title>
<path fill="none" stroke="black" d="M967.06,-744.54C956.04,-740.83 944.89,-736.76 934.5,-732.48 927.79,-729.71 926.88,-727.27 920,-724.98 861.94,-705.6 794.79,-693.56 739.35,-686.21"/>
<polygon fill="black" stroke="black" points="739.93,-682.76 729.57,-684.95 739.04,-689.7 739.93,-682.76"/>
<text xml:space="preserve" text-anchor="middle" x="832.88" y="-728.18" font-family="Times,serif" font-size="14.00">proper updates</text>
</g>
<!-- circle_learnings&#45;&gt;liveview -->
<g id="edge29" class="edge">
<title>circle_learnings&#45;&gt;liveview</title>
<path fill="none" stroke="black" d="M947.18,-744.57C942.45,-741.12 938.15,-737.12 934.5,-732.48 904.57,-694.39 950.57,-552.55 920,-514.98 869.27,-452.62 813.91,-509.1 745.75,-466.48 702.76,-439.6 666.34,-392.69 645.37,-361.86"/>
<polygon fill="black" stroke="black" points="648.41,-360.11 639.96,-353.72 642.59,-363.98 648.41,-360.11"/>
<text xml:space="preserve" text-anchor="middle" x="832.88" y="-518.18" font-family="Times,serif" font-size="14.00">multi&#45;select patterns</text>
</g>
<!-- circle_learnings&#45;&gt;daisyui -->
<g id="edge30" class="edge">
<title>circle_learnings&#45;&gt;daisyui</title>
<path fill="none" stroke="black" d="M1128.03,-744.72C1133.29,-741.25 1138.11,-737.2 1142.25,-732.48 1171.01,-699.67 1144.43,-676.64 1160.25,-635.98 1204.09,-523.27 1289.53,-406.52 1331.16,-353.22"/>
<polygon fill="black" stroke="black" points="1333.8,-355.54 1337.24,-345.52 1328.3,-351.21 1333.8,-355.54"/>
<text xml:space="preserve" text-anchor="middle" x="1196.62" y="-639.18" font-family="Times,serif" font-size="14.00">tag UI</text>
</g>
</g>
</svg>
