<?xml version="1.0" encoding="UTF-8" standalone="no"?>
<!DOCTYPE svg PUBLIC "-//W3C//DTD SVG 1.1//EN"
 "http://www.w3.org/Graphics/SVG/1.1/DTD/svg11.dtd">
<!-- Generated by graphviz version 14.0.2 (20251019.1705)
 -->
<!-- Title: GuidelineConcepts Pages: 1 -->
<svg width="1676pt" height="472pt"
 viewBox="0.00 0.00 1676.00 472.00" xmlns="http://www.w3.org/2000/svg" xmlns:xlink="http://www.w3.org/1999/xlink">
<g id="graph0" class="graph" transform="scale(1 1) rotate(0) translate(4 468.11)">
<title>GuidelineConcepts</title>
<polygon fill="white" stroke="none" points="-4,4 -4,-468.11 1671.5,-468.11 1671.5,4 -4,4"/>
<g id="clust1" class="cluster">
<title>cluster_core</title>
<polygon fill="lightgrey" stroke="lightgrey" points="1113.25,-311.11 1113.25,-393.11 1659.5,-393.11 1659.5,-311.11 1113.25,-311.11"/>
<text xml:space="preserve" text-anchor="middle" x="1386.38" y="-375.81" font-family="Times,serif" font-size="14.00">Core Guidelines</text>
</g>
<g id="clust2" class="cluster">
<title>cluster_data</title>
<polygon fill="lightgrey" stroke="lightgrey" points="8,-63.11 8,-145.11 519,-145.11 519,-63.11 8,-63.11"/>
<text xml:space="preserve" text-anchor="middle" x="263.5" y="-127.81" font-family="Times,serif" font-size="14.00">Database Layer</text>
</g>
<g id="clust3" class="cluster">
<title>cluster_ui</title>
<polygon fill="lightgrey" stroke="lightgrey" points="188.25,-374.11 188.25,-456.11 994.25,-456.11 994.25,-374.11 188.25,-374.11"/>
<text xml:space="preserve" text-anchor="middle" x="591.25" y="-438.81" font-family="Times,serif" font-size="14.00">UI Layer</text>
</g>
<g id="clust4" class="cluster">
<title>cluster_tools</title>
<polygon fill="lightgrey" stroke="lightgrey" points="608.75,-166.11 608.75,-366.11 773.5,-366.11 773.5,-166.11 608.75,-166.11"/>
<text xml:space="preserve" text-anchor="middle" x="691.12" y="-348.81" font-family="Times,serif" font-size="14.00">Tools &amp; Infrastructure</text>
</g>
<g id="clust5" class="cluster">
<title>cluster_projects</title>
<polygon fill="lightgrey" stroke="lightgrey" points="861.75,-162.11 861.75,-303.11 1245.75,-303.11 1245.75,-162.11 861.75,-162.11"/>
<text xml:space="preserve" text-anchor="middle" x="1053.75" y="-285.81" font-family="Times,serif" font-size="14.00">Projects</text>
</g>
<!-- git -->
<g id="node1" class="node">
<title>git</title>
<polygon fill="lightblue" stroke="black" points="1226.5,-360.61 1121.25,-360.61 1121.25,-319.61 1226.5,-319.61 1226.5,-360.61"/>
<text xml:space="preserve" text-anchor="middle" x="1173.88" y="-343.31" font-family="Times,serif" font-size="14.00">Git Workflow</text>
<text xml:space="preserve" text-anchor="middle" x="1173.88" y="-326.81" font-family="Times,serif" font-size="14.00">(GUIDELINES)</text>
</g>
<!-- verification -->
<g id="node2" class="node">
<title>verification</title>
<polygon fill="lightblue" stroke="black" points="1457.75,-360.61 1346.5,-360.61 1346.5,-319.61 1457.75,-319.61 1457.75,-360.61"/>
<text xml:space="preserve" text-anchor="middle" x="1402.12" y="-343.31" font-family="Times,serif" font-size="14.00">Code Verification</text>
<text xml:space="preserve" text-anchor="middle" x="1402.12" y="-326.81" font-family="Times,serif" font-size="14.00">(GUIDELINES)</text>
</g>
<!-- git&#45;&gt;verification -->
<g id="edge10" class="edge">
<title>git&#45;&gt;verification</title>
<path fill="none" stroke="black" d="M1226.78,-340.11C1258.9,-340.11 1300.43,-340.11 1334.91,-340.11"/>
<polygon fill="black" stroke="black" points="1334.79,-343.61 1344.79,-340.11 1334.79,-336.61 1334.79,-343.61"/>
<text xml:space="preserve" text-anchor="middle" x="1292.12" y="-343.31" font-family="Times,serif" font-size="14.00">before merge</text>
</g>
<!-- communication -->
<g id="node3" class="node">
<title>communication</title>
<polygon fill="lightblue" stroke="black" points="1651.5,-360.61 1546.25,-360.61 1546.25,-319.61 1651.5,-319.61 1651.5,-360.61"/>
<text xml:space="preserve" text-anchor="middle" x="1598.88" y="-343.31" font-family="Times,serif" font-size="14.00">Communication</text>
<text xml:space="preserve" text-anchor="middle" x="1598.88" y="-326.81" font-family="Times,serif" font-size="14.00">(GUIDELINES)</text>
</g>
<!-- verification&#45;&gt;communication -->
<g id="edge11" class="edge">
<title>verification&#45;&gt;communication</title>
<path fill="none" stroke="black" d="M1458.15,-340.11C1481.94,-340.11 1509.92,-340.11 1534.57,-340.11"/>
<polygon fill="black" stroke="black" points="1534.48,-343.61 1544.48,-340.11 1534.48,-336.61 1534.48,-343.61"/>
<text xml:space="preserve" text-anchor="middle" x="1502" y="-343.31" font-family="Times,serif" font-size="14.00">report via</text>
</g>
<!-- db_pk -->
<g id="node4" class="node">
<title>db_pk</title>
<polygon fill="lightgreen" stroke="black" points="121.25,-112.61 16,-112.61 16,-71.61 121.25,-71.61 121.25,-112.61"/>
<text xml:space="preserve" text-anchor="middle" x="68.62" y="-95.31" font-family="Times,serif" font-size="14.00">Primary Keys</text>
<text xml:space="preserve" text-anchor="middle" x="68.62" y="-78.81" font-family="Times,serif" font-size="14.00">(GUIDELINES)</text>
</g>
<!-- ash_resource -->
<g id="node5" class="node">
<title>ash_resource</title>
<polygon fill="lightgreen" stroke="black" points="302.62,-112.61 197.38,-112.61 197.38,-71.61 302.62,-71.61 302.62,-112.61"/>
<text xml:space="preserve" text-anchor="middle" x="250" y="-95.31" font-family="Times,serif" font-size="14.00">Ash Resources</text>
<text xml:space="preserve" text-anchor="middle" x="250" y="-78.81" font-family="Times,serif" font-size="14.00">(GUIDELINES)</text>
</g>
<!-- db_pk&#45;&gt;ash_resource -->
<g id="edge1" class="edge">
<title>db_pk&#45;&gt;ash_resource</title>
<path fill="none" stroke="black" d="M121.51,-92.11C141.5,-92.11 164.56,-92.11 185.52,-92.11"/>
<polygon fill="black" stroke="black" points="185.41,-95.61 195.41,-92.11 185.41,-88.61 185.41,-95.61"/>
<text xml:space="preserve" text-anchor="middle" x="158.75" y="-95.31" font-family="Times,serif" font-size="14.00">used in</text>
</g>
<!-- calvin_domain -->
<g id="node14" class="node">
<title>calvin_domain</title>
<polygon fill="plum" stroke="black" points="1233.62,-211.61 1114.12,-211.61 1114.12,-170.61 1233.62,-170.61 1233.62,-211.61"/>
<text xml:space="preserve" text-anchor="middle" x="1173.88" y="-194.31" font-family="Times,serif" font-size="14.00">Calvin Business</text>
<text xml:space="preserve" text-anchor="middle" x="1173.88" y="-177.81" font-family="Times,serif" font-size="14.00">(calvin/README)</text>
</g>
<!-- db_pk&#45;&gt;calvin_domain -->
<g id="edge13" class="edge">
<title>db_pk&#45;&gt;calvin_domain</title>
<path fill="none" stroke="black" d="M87.39,-71.26C100.39,-57.32 119.19,-39.65 139.25,-29.11 183.62,-5.78 198.87,-3.11 249,-3.11 249,-3.11 249,-3.11 938.75,-3.11 1007.83,-3.11 1036.5,12.03 1092,-29.11 1135.02,-61 1156.6,-122.2 1166.22,-159.56"/>
<polygon fill="black" stroke="black" points="1162.72,-159.97 1168.48,-168.87 1169.52,-158.32 1162.72,-159.97"/>
<text xml:space="preserve" text-anchor="middle" x="563.88" y="-6.31" font-family="Times,serif" font-size="14.00">applied in</text>
</g>
<!-- sanjuan_domain -->
<g id="node15" class="node">
<title>sanjuan_domain</title>
<polygon fill="plum" stroke="black" points="1237.75,-270.61 1110,-270.61 1110,-229.61 1237.75,-229.61 1237.75,-270.61"/>
<text xml:space="preserve" text-anchor="middle" x="1173.88" y="-253.31" font-family="Times,serif" font-size="14.00">SanJuan Analytics</text>
<text xml:space="preserve" text-anchor="middle" x="1173.88" y="-236.81" font-family="Times,serif" font-size="14.00">(sanjuan/README)</text>
</g>
<!-- db_pk&#45;&gt;sanjuan_domain -->
<g id="edge14" class="edge">
<title>db_pk&#45;&gt;sanjuan_domain</title>
<path fill="none" stroke="black" d="M118.52,-71.18C154.04,-57.87 203.64,-43.11 249,-43.11 249,-43.11 249,-43.11 938.75,-43.11 970.38,-43.11 980.49,-48.07 1005.75,-67.11 1058.2,-106.63 1057.39,-131.29 1092,-187.11 1101.01,-201.64 1097.58,-209.35 1110,-221.11 1110.49,-221.57 1110.99,-222.03 1111.5,-222.48"/>
<polygon fill="black" stroke="black" points="1109.07,-225.03 1119.14,-228.34 1113.33,-219.48 1109.07,-225.03"/>
<text xml:space="preserve" text-anchor="middle" x="563.88" y="-46.31" font-family="Times,serif" font-size="14.00">applied in</text>
</g>
<!-- migrations -->
<g id="node6" class="node">
<title>migrations</title>
<polygon fill="lightgreen" stroke="black" points="511,-112.61 405.75,-112.61 405.75,-71.61 511,-71.61 511,-112.61"/>
<text xml:space="preserve" text-anchor="middle" x="458.38" y="-95.31" font-family="Times,serif" font-size="14.00">Data Migrations</text>
<text xml:space="preserve" text-anchor="middle" x="458.38" y="-78.81" font-family="Times,serif" font-size="14.00">(GUIDELINES)</text>
</g>
<!-- ash_resource&#45;&gt;migrations -->
<g id="edge2" class="edge">
<title>ash_resource&#45;&gt;migrations</title>
<path fill="none" stroke="black" d="M303.08,-92.11C330.7,-92.11 364.85,-92.11 394,-92.11"/>
<polygon fill="black" stroke="black" points="393.8,-95.61 403.8,-92.11 393.8,-88.61 393.8,-95.61"/>
<text xml:space="preserve" text-anchor="middle" x="354.75" y="-95.31" font-family="Times,serif" font-size="14.00">creates</text>
</g>
<!-- liveview -->
<g id="node8" class="node">
<title>liveview</title>
<polygon fill="lightyellow" stroke="black" points="504.25,-423.61 412.5,-423.61 412.5,-382.61 504.25,-382.61 504.25,-423.61"/>
<text xml:space="preserve" text-anchor="middle" x="458.38" y="-406.31" font-family="Times,serif" font-size="14.00">LiveView</text>
<text xml:space="preserve" text-anchor="middle" x="458.38" y="-389.81" font-family="Times,serif" font-size="14.00">(LIVEVIEW)</text>
</g>
<!-- ash_resource&#45;&gt;liveview -->
<g id="edge12" class="edge">
<title>ash_resource&#45;&gt;liveview</title>
<path fill="none" stroke="black" d="M264.86,-113C300.55,-166.77 395.7,-310.16 437.36,-372.95"/>
<polygon fill="black" stroke="black" points="434.29,-374.65 442.74,-381.05 440.12,-370.78 434.29,-374.65"/>
<text xml:space="preserve" text-anchor="middle" x="354.75" y="-296.83" font-family="Times,serif" font-size="14.00">displayed in</text>
</g>
<!-- fly -->
<g id="node13" class="node">
<title>fly</title>
<polygon fill="lightcoral" stroke="black" points="765.5,-333.61 616.75,-333.61 616.75,-292.61 765.5,-292.61 765.5,-333.61"/>
<text xml:space="preserve" text-anchor="middle" x="691.12" y="-316.31" font-family="Times,serif" font-size="14.00">Fly Deployment</text>
<text xml:space="preserve" text-anchor="middle" x="691.12" y="-299.81" font-family="Times,serif" font-size="14.00">(FLY_DEPLOYMENT)</text>
</g>
<!-- ash_resource&#45;&gt;fly -->
<g id="edge22" class="edge">
<title>ash_resource&#45;&gt;fly</title>
<path fill="none" stroke="black" d="M302.77,-108.71C397.27,-139.22 588.98,-202.21 598.75,-214.11 618.7,-238.39 588.86,-259.77 608.75,-284.11 608.83,-284.2 608.9,-284.29 608.98,-284.39"/>
<polygon fill="black" stroke="black" points="606.38,-286.74 615.99,-291.2 611.26,-281.72 606.38,-286.74"/>
<text xml:space="preserve" text-anchor="middle" x="458.38" y="-183.98" font-family="Times,serif" font-size="14.00">deployed via</text>
</g>
<!-- migrations&#45;&gt;verification -->
<g id="edge3" class="edge">
<title>migrations&#45;&gt;verification</title>
<path fill="none" stroke="black" d="M511.15,-91.05C557.92,-90.19 628.63,-89.11 690.12,-89.11 690.12,-89.11 690.12,-89.11 1174.88,-89.11 1291.86,-89.11 1363.87,-241.39 1389.99,-308.72"/>
<polygon fill="black" stroke="black" points="1386.58,-309.61 1393.39,-317.72 1393.13,-307.13 1386.58,-309.61"/>
<text xml:space="preserve" text-anchor="middle" x="937.75" y="-92.31" font-family="Times,serif" font-size="14.00">requires</text>
</g>
<!-- phoenix -->
<g id="node7" class="node">
<title>phoenix</title>
<polygon fill="lightyellow" stroke="black" points="303.75,-423.61 196.25,-423.61 196.25,-382.61 303.75,-382.61 303.75,-423.61"/>
<text xml:space="preserve" text-anchor="middle" x="250" y="-406.31" font-family="Times,serif" font-size="14.00">Phoenix Patterns</text>
<text xml:space="preserve" text-anchor="middle" x="250" y="-389.81" font-family="Times,serif" font-size="14.00">(LIVEVIEW)</text>
</g>
<!-- phoenix&#45;&gt;liveview -->
<g id="edge4" class="edge">
<title>phoenix&#45;&gt;liveview</title>
<path fill="none" stroke="black" d="M304.15,-403.11C333.8,-403.11 370.72,-403.11 400.9,-403.11"/>
<polygon fill="black" stroke="black" points="400.59,-406.61 410.59,-403.11 400.59,-399.61 400.59,-406.61"/>
<text xml:space="preserve" text-anchor="middle" x="354.75" y="-406.31" font-family="Times,serif" font-size="14.00">includes</text>
</g>
<!-- daisyui -->
<g id="node9" class="node">
<title>daisyui</title>
<polygon fill="lightyellow" stroke="black" points="758.38,-423.61 623.88,-423.61 623.88,-382.61 758.38,-382.61 758.38,-423.61"/>
<text xml:space="preserve" text-anchor="middle" x="691.12" y="-406.31" font-family="Times,serif" font-size="14.00">DaisyUI Components</text>
<text xml:space="preserve" text-anchor="middle" x="691.12" y="-389.81" font-family="Times,serif" font-size="14.00">(DAISYUI)</text>
</g>
<!-- liveview&#45;&gt;daisyui -->
<g id="edge5" class="edge">
<title>liveview&#45;&gt;daisyui</title>
<path fill="none" stroke="black" d="M504.69,-403.11C535.24,-403.11 576.35,-403.11 612.1,-403.11"/>
<polygon fill="black" stroke="black" points="611.98,-406.61 621.98,-403.11 611.98,-399.61 611.98,-406.61"/>
<text xml:space="preserve" text-anchor="middle" x="563.88" y="-406.31" font-family="Times,serif" font-size="14.00">styles with</text>
</g>
<!-- live_table -->
<g id="node12" class="node">
<title>live_table</title>
<polygon fill="lightcoral" stroke="black" points="744.12,-215.61 638.12,-215.61 638.12,-174.61 744.12,-174.61 744.12,-215.61"/>
<text xml:space="preserve" text-anchor="middle" x="691.12" y="-198.31" font-family="Times,serif" font-size="14.00">LiveTable</text>
<text xml:space="preserve" text-anchor="middle" x="691.12" y="-181.81" font-family="Times,serif" font-size="14.00">(LIVE_TABLE)</text>
</g>
<!-- liveview&#45;&gt;live_table -->
<g id="edge8" class="edge">
<title>liveview&#45;&gt;live_table</title>
<path fill="none" stroke="black" d="M464.32,-382.36C472.67,-351.5 492.36,-293.42 529,-258.61 555.93,-233.02 594.39,-217.35 626.98,-207.97"/>
<polygon fill="black" stroke="black" points="627.59,-211.43 636.32,-205.42 625.75,-204.68 627.59,-211.43"/>
<text xml:space="preserve" text-anchor="middle" x="563.88" y="-261.81" font-family="Times,serif" font-size="14.00">can use</text>
</g>
<!-- liveview&#45;&gt;fly -->
<g id="edge21" class="edge">
<title>liveview&#45;&gt;fly</title>
<path fill="none" stroke="black" d="M504.69,-385.43C539.24,-371.96 587.28,-353.22 625.81,-338.19"/>
<polygon fill="black" stroke="black" points="626.95,-341.5 635,-334.61 624.41,-334.98 626.95,-341.5"/>
<text xml:space="preserve" text-anchor="middle" x="563.88" y="-377.2" font-family="Times,serif" font-size="14.00">deployed via</text>
</g>
<!-- css -->
<g id="node10" class="node">
<title>css</title>
<polygon fill="lightyellow" stroke="black" points="986.25,-423.61 889.25,-423.61 889.25,-382.61 986.25,-382.61 986.25,-423.61"/>
<text xml:space="preserve" text-anchor="middle" x="937.75" y="-406.31" font-family="Times,serif" font-size="14.00">CSS Standards</text>
<text xml:space="preserve" text-anchor="middle" x="937.75" y="-389.81" font-family="Times,serif" font-size="14.00">(DAISYUI)</text>
</g>
<!-- daisyui&#45;&gt;css -->
<g id="edge6" class="edge">
<title>daisyui&#45;&gt;css</title>
<path fill="none" stroke="black" d="M758.65,-403.11C795.8,-403.11 841.69,-403.11 877.58,-403.11"/>
<polygon fill="black" stroke="black" points="877.35,-406.61 887.35,-403.11 877.35,-399.61 877.35,-406.61"/>
<text xml:space="preserve" text-anchor="middle" x="817.62" y="-406.31" font-family="Times,serif" font-size="14.00">defines</text>
</g>
<!-- css_linter -->
<g id="node11" class="node">
<title>css_linter</title>
<polygon fill="lightcoral" stroke="black" points="735.5,-274.61 646.75,-274.61 646.75,-233.61 735.5,-233.61 735.5,-274.61"/>
<text xml:space="preserve" text-anchor="middle" x="691.12" y="-257.31" font-family="Times,serif" font-size="14.00">CSS Linter</text>
<text xml:space="preserve" text-anchor="middle" x="691.12" y="-240.81" font-family="Times,serif" font-size="14.00">(usage_rules)</text>
</g>
<!-- css&#45;&gt;css_linter -->
<g id="edge7" class="edge">
<title>css&#45;&gt;css_linter</title>
<path fill="none" stroke="black" d="M912.73,-382.27C882.09,-356.51 826.68,-312.58 773.5,-284.11 765.01,-279.56 755.68,-275.41 746.46,-271.75"/>
<polygon fill="black" stroke="black" points="747.76,-268.5 737.16,-268.21 745.27,-275.04 747.76,-268.5"/>
<text xml:space="preserve" text-anchor="middle" x="817.62" y="-334.88" font-family="Times,serif" font-size="14.00">analyzed by</text>
</g>
<!-- maestro_coord -->
<g id="node16" class="node">
<title>maestro_coord</title>
<polygon fill="plum" stroke="black" points="1005.75,-270.61 869.75,-270.61 869.75,-229.61 1005.75,-229.61 1005.75,-270.61"/>
<text xml:space="preserve" text-anchor="middle" x="937.75" y="-253.31" font-family="Times,serif" font-size="14.00">Maestro Coordination</text>
<text xml:space="preserve" text-anchor="middle" x="937.75" y="-236.81" font-family="Times,serif" font-size="14.00">(maestro/README)</text>
</g>
<!-- css_linter&#45;&gt;maestro_coord -->
<g id="edge18" class="edge">
<title>css_linter&#45;&gt;maestro_coord</title>
<path fill="none" stroke="black" d="M735.86,-253.39C769.7,-252.84 817.47,-252.06 857.93,-251.4"/>
<polygon fill="black" stroke="black" points="857.95,-254.9 867.89,-251.23 857.84,-247.9 857.95,-254.9"/>
<text xml:space="preserve" text-anchor="middle" x="817.62" y="-255.78" font-family="Times,serif" font-size="14.00">integrated in</text>
</g>
<!-- live_table&#45;&gt;daisyui -->
<g id="edge9" class="edge">
<title>live_table&#45;&gt;daisyui</title>
<path fill="none" stroke="black" d="M637.92,-210.5C606.17,-223.02 569.35,-244.39 555.08,-278.86 538.02,-320.1 589.42,-354.96 608.75,-370.11 611.66,-372.39 614.75,-374.53 617.96,-376.54"/>
<polygon fill="black" stroke="black" points="616.14,-379.53 626.56,-381.44 619.6,-373.45 616.14,-379.53"/>
<text xml:space="preserve" text-anchor="middle" x="563.88" y="-282.06" font-family="Times,serif" font-size="14.00">styled with</text>
</g>
<!-- live_table&#45;&gt;calvin_domain -->
<g id="edge20" class="edge">
<title>live_table&#45;&gt;calvin_domain</title>
<path fill="none" stroke="black" d="M744.33,-180.08C777.61,-171.3 821.84,-161.08 861.75,-156.61 963.55,-145.2 991.7,-146.27 1092,-167.11 1095.58,-167.85 1099.24,-168.68 1102.92,-169.57"/>
<polygon fill="black" stroke="black" points="1101.96,-172.93 1112.51,-172.01 1103.69,-166.15 1101.96,-172.93"/>
<text xml:space="preserve" text-anchor="middle" x="937.75" y="-159.81" font-family="Times,serif" font-size="14.00">used in</text>
</g>
<!-- live_table&#45;&gt;sanjuan_domain -->
<g id="edge19" class="edge">
<title>live_table&#45;&gt;sanjuan_domain</title>
<path fill="none" stroke="black" d="M744.39,-187.22C822.49,-177.53 973.19,-167.01 1092,-208.11 1101.33,-211.33 1101.48,-216.13 1110,-221.11 1111.64,-222.07 1113.32,-223.02 1115.02,-223.96"/>
<polygon fill="black" stroke="black" points="1113.18,-226.94 1123.66,-228.51 1116.44,-220.75 1113.18,-226.94"/>
<text xml:space="preserve" text-anchor="middle" x="937.75" y="-190.16" font-family="Times,serif" font-size="14.00">used in</text>
</g>
<!-- fly&#45;&gt;verification -->
<g id="edge23" class="edge">
<title>fly&#45;&gt;verification</title>
<path fill="none" stroke="black" d="M757.13,-334C765.93,-336.33 774.89,-338.46 783.5,-340.11 926.61,-367.55 964.43,-363.43 1110,-370.11 1170.27,-372.87 1185.51,-373.37 1245.75,-370.11 1282.69,-368.1 1292.21,-368.27 1328.5,-361.11 1330.67,-360.68 1332.87,-360.21 1335.09,-359.72"/>
<polygon fill="black" stroke="black" points="1335.87,-363.14 1344.78,-357.41 1334.24,-356.33 1335.87,-363.14"/>
<text xml:space="preserve" text-anchor="middle" x="1057.88" y="-372.45" font-family="Times,serif" font-size="14.00">tested after</text>
</g>
<!-- maestro_coord&#45;&gt;git -->
<g id="edge17" class="edge">
<title>maestro_coord&#45;&gt;git</title>
<path fill="none" stroke="black" d="M993.35,-271.09C1028.4,-284.57 1074.01,-302.1 1110.49,-316.13"/>
<polygon fill="black" stroke="black" points="1109,-319.3 1119.59,-319.63 1111.52,-312.77 1109,-319.3"/>
<text xml:space="preserve" text-anchor="middle" x="1057.88" y="-311.63" font-family="Times,serif" font-size="14.00">manages via</text>
</g>
<!-- maestro_coord&#45;&gt;calvin_domain -->
<g id="edge15" class="edge">
<title>maestro_coord&#45;&gt;calvin_domain</title>
<path fill="none" stroke="black" d="M1006.15,-233.12C1036.47,-225.48 1072.25,-216.46 1102.87,-208.75"/>
<polygon fill="black" stroke="black" points="1103.59,-212.18 1112.43,-206.34 1101.88,-205.39 1103.59,-212.18"/>
<text xml:space="preserve" text-anchor="middle" x="1057.88" y="-230.83" font-family="Times,serif" font-size="14.00">coordinates</text>
</g>
<!-- maestro_coord&#45;&gt;sanjuan_domain -->
<g id="edge16" class="edge">
<title>maestro_coord&#45;&gt;sanjuan_domain</title>
<path fill="none" stroke="black" d="M1006.15,-250.11C1034.9,-250.11 1068.54,-250.11 1098.05,-250.11"/>
<polygon fill="black" stroke="black" points="1098.05,-253.61 1108.05,-250.11 1098.05,-246.61 1098.05,-253.61"/>
<text xml:space="preserve" text-anchor="middle" x="1057.88" y="-253.31" font-family="Times,serif" font-size="14.00">coordinates</text>
</g>
</g>
</svg>
