<?xml version="1.0" encoding="UTF-8" standalone="no"?>
<!DOCTYPE svg PUBLIC "-//W3C//DTD SVG 1.1//EN"
 "http://www.w3.org/Graphics/SVG/1.1/DTD/svg11.dtd">
<!-- Generated by graphviz version 14.0.2 (20251019.1705)
 -->
<!-- Title: GuidelineConcepts Pages: 1 -->
<svg width="1793pt" height="459pt"
 viewBox="0.00 0.00 1793.00 459.00" xmlns="http://www.w3.org/2000/svg" xmlns:xlink="http://www.w3.org/1999/xlink">
<g id="graph0" class="graph" transform="scale(1 1) rotate(0) translate(4 454.5)">
<title>GuidelineConcepts</title>
<polygon fill="white" stroke="none" points="-4,4 -4,-454.5 1788.5,-454.5 1788.5,4 -4,4"/>
<!-- git -->
<g id="node1" class="node">
<title>git</title>
<polygon fill="lightblue" stroke="black" points="1473.38,-79 1381.62,-79 1381.62,-43 1473.38,-43 1473.38,-79"/>
<text xml:space="preserve" text-anchor="middle" x="1427.5" y="-55.95" font-family="Times,serif" font-size="14.00">Git Workflow</text>
</g>
<!-- verification -->
<g id="node2" class="node">
<title>verification</title>
<polygon fill="lightblue" stroke="black" points="1643,-36 1531.75,-36 1531.75,0 1643,0 1643,-36"/>
<text xml:space="preserve" text-anchor="middle" x="1587.38" y="-12.95" font-family="Times,serif" font-size="14.00">Code Verification</text>
</g>
<!-- git&#45;&gt;verification -->
<g id="edge18" class="edge">
<title>git&#45;&gt;verification</title>
<path fill="none" stroke="black" d="M1473.74,-48.68C1488.33,-44.71 1504.8,-40.22 1520.55,-35.93"/>
<polygon fill="black" stroke="black" points="1521.13,-39.4 1529.86,-33.39 1519.29,-32.64 1521.13,-39.4"/>
</g>
<!-- communication -->
<g id="node3" class="node">
<title>communication</title>
<polygon fill="lightblue" stroke="black" points="1784.5,-36 1680,-36 1680,0 1784.5,0 1784.5,-36"/>
<text xml:space="preserve" text-anchor="middle" x="1732.25" y="-12.95" font-family="Times,serif" font-size="14.00">Communication</text>
</g>
<!-- verification&#45;&gt;communication -->
<g id="edge19" class="edge">
<title>verification&#45;&gt;communication</title>
<path fill="none" stroke="black" d="M1643.21,-18C1651.43,-18 1659.96,-18 1668.34,-18"/>
<polygon fill="black" stroke="black" points="1668.1,-21.5 1678.1,-18 1668.1,-14.5 1668.1,-21.5"/>
</g>
<!-- db_pk -->
<g id="node4" class="node">
<title>db_pk</title>
<polygon fill="lightgreen" stroke="black" points="143.5,-200 51.75,-200 51.75,-164 143.5,-164 143.5,-200"/>
<text xml:space="preserve" text-anchor="middle" x="97.62" y="-176.95" font-family="Times,serif" font-size="14.00">Primary Keys</text>
</g>
<!-- ash_resource -->
<g id="node5" class="node">
<title>ash_resource</title>
<polygon fill="lightgreen" stroke="black" points="413,-200 316,-200 316,-164 413,-164 413,-200"/>
<text xml:space="preserve" text-anchor="middle" x="364.5" y="-176.95" font-family="Times,serif" font-size="14.00">Ash Resources</text>
</g>
<!-- db_pk&#45;&gt;ash_resource -->
<g id="edge1" class="edge">
<title>db_pk&#45;&gt;ash_resource</title>
<path fill="none" stroke="black" d="M143.86,-182C188.18,-182 255.95,-182 304.49,-182"/>
<polygon fill="black" stroke="black" points="304.26,-185.5 314.26,-182 304.26,-178.5 304.26,-185.5"/>
</g>
<!-- poly_relations -->
<g id="node6" class="node">
<title>poly_relations</title>
<polygon fill="lightgreen" stroke="black" points="676.5,-254 535.25,-254 535.25,-218 676.5,-218 676.5,-254"/>
<text xml:space="preserve" text-anchor="middle" x="605.88" y="-230.95" font-family="Times,serif" font-size="14.00">Polymorphic Relations</text>
</g>
<!-- ash_resource&#45;&gt;poly_relations -->
<g id="edge2" class="edge">
<title>ash_resource&#45;&gt;poly_relations</title>
<path fill="none" stroke="black" d="M413.37,-192.8C444.9,-199.91 486.98,-209.4 523.66,-217.68"/>
<polygon fill="black" stroke="black" points="522.86,-221.09 533.38,-219.87 524.4,-214.26 522.86,-221.09"/>
</g>
<!-- migrations -->
<g id="node7" class="node">
<title>migrations</title>
<polygon fill="lightgreen" stroke="black" points="658.5,-200 553.25,-200 553.25,-164 658.5,-164 658.5,-200"/>
<text xml:space="preserve" text-anchor="middle" x="605.88" y="-176.95" font-family="Times,serif" font-size="14.00">Data Migrations</text>
</g>
<!-- ash_resource&#45;&gt;migrations -->
<g id="edge3" class="edge">
<title>ash_resource&#45;&gt;migrations</title>
<path fill="none" stroke="black" d="M413.37,-182C450.2,-182 501.44,-182 541.65,-182"/>
<polygon fill="black" stroke="black" points="541.43,-185.5 551.43,-182 541.43,-178.5 541.43,-185.5"/>
</g>
<!-- data_modification -->
<g id="node8" class="node">
<title>data_modification</title>
<polygon fill="lightgreen" stroke="black" points="916,-50.5 711,-50.5 711,-9.5 916,-9.5 916,-50.5"/>
<text xml:space="preserve" text-anchor="middle" x="813.5" y="-33.2" font-family="Times,serif" font-size="14.00">Data Modification</text>
<text xml:space="preserve" text-anchor="middle" x="813.5" y="-16.7" font-family="Times,serif" font-size="14.00">(guides/DATA_MODIFICATION)</text>
</g>
<!-- ash_resource&#45;&gt;data_modification -->
<g id="edge4" class="edge">
<title>ash_resource&#45;&gt;data_modification</title>
<path fill="none" stroke="black" d="M371.07,-163.61C380.09,-137.34 400.58,-89.78 436.25,-67.5 514.55,-18.59 620.37,-12.1 699.84,-16.19"/>
<polygon fill="black" stroke="black" points="699.18,-19.65 709.37,-16.74 699.59,-12.66 699.18,-19.65"/>
<text xml:space="preserve" text-anchor="middle" x="468.5" y="-70.7" font-family="Times,serif" font-size="14.00">updated via</text>
</g>
<!-- liveview -->
<g id="node11" class="node">
<title>liveview</title>
<polygon fill="lightyellow" stroke="black" points="1007.38,-301 937.38,-301 937.38,-265 1007.38,-265 1007.38,-301"/>
<text xml:space="preserve" text-anchor="middle" x="972.38" y="-277.95" font-family="Times,serif" font-size="14.00">LiveView</text>
</g>
<!-- ash_resource&#45;&gt;liveview -->
<g id="edge21" class="edge">
<title>ash_resource&#45;&gt;liveview</title>
<path fill="none" stroke="black" d="M391.38,-200.37C420.69,-220.02 470.65,-250.08 518.75,-263 663.35,-301.82 843.15,-293.97 925.86,-287.39"/>
<polygon fill="black" stroke="black" points="925.93,-290.9 935.6,-286.58 925.35,-283.92 925.93,-290.9"/>
</g>
<!-- markdown_editor -->
<g id="node15" class="node">
<title>markdown_editor</title>
<polygon fill="lightyellow" stroke="black" points="1323.25,-195.5 1119,-195.5 1119,-154.5 1323.25,-154.5 1323.25,-195.5"/>
<text xml:space="preserve" text-anchor="middle" x="1221.12" y="-178.2" font-family="Times,serif" font-size="14.00">Markdown Editor</text>
<text xml:space="preserve" text-anchor="middle" x="1221.12" y="-161.7" font-family="Times,serif" font-size="14.00">(guides/MARKDOWN_EDITOR)</text>
</g>
<!-- ash_resource&#45;&gt;markdown_editor -->
<g id="edge12" class="edge">
<title>ash_resource&#45;&gt;markdown_editor</title>
<path fill="none" stroke="black" d="M380.84,-163.71C393.94,-149.54 414.13,-130.88 436.25,-122 634.25,-42.53 702.86,-96.01 916,-105.5 998.47,-109.17 1028.47,-82.58 1101,-122 1112.4,-128.2 1108.27,-137.7 1119,-145 1121.03,-146.38 1123.12,-147.7 1125.27,-148.96"/>
<polygon fill="black" stroke="black" points="1123.17,-151.81 1133.64,-153.4 1126.45,-145.62 1123.17,-151.81"/>
<text xml:space="preserve" text-anchor="middle" x="813.5" y="-108.7" font-family="Times,serif" font-size="14.00">field type</text>
</g>
<!-- fly -->
<g id="node18" class="node">
<title>fly</title>
<polygon fill="lightcoral" stroke="black" points="1273.75,-250 1168.5,-250 1168.5,-214 1273.75,-214 1273.75,-250"/>
<text xml:space="preserve" text-anchor="middle" x="1221.12" y="-226.95" font-family="Times,serif" font-size="14.00">Fly Deployment</text>
</g>
<!-- ash_resource&#45;&gt;fly -->
<g id="edge30" class="edge">
<title>ash_resource&#45;&gt;fly</title>
<path fill="none" stroke="black" d="M413.19,-171.39C443.29,-165.24 483.09,-158.12 518.75,-155 754.84,-134.36 1034.65,-188.89 1157.27,-216.76"/>
<polygon fill="black" stroke="black" points="1156.28,-220.13 1166.81,-218.95 1157.85,-213.31 1156.28,-220.13"/>
</g>
<!-- poly_relations&#45;&gt;liveview -->
<g id="edge22" class="edge">
<title>poly_relations&#45;&gt;liveview</title>
<path fill="none" stroke="black" d="M676.7,-240C739.66,-244.37 834.58,-252.86 916,-268 919.32,-268.62 922.73,-269.33 926.15,-270.11"/>
<polygon fill="black" stroke="black" points="925,-273.43 935.54,-272.41 926.66,-266.63 925,-273.43"/>
</g>
<!-- data_modification&#45;&gt;verification -->
<g id="edge5" class="edge">
<title>data_modification&#45;&gt;verification</title>
<path fill="none" stroke="black" d="M916.2,-15.76C961.34,-10.59 1015.16,-6 1063.88,-6 1063.88,-6 1063.88,-6 1428.5,-6 1458.58,-6 1491.79,-8.19 1519.96,-10.7"/>
<polygon fill="black" stroke="black" points="1519.5,-14.18 1529.78,-11.61 1520.15,-7.21 1519.5,-14.18"/>
<text xml:space="preserve" text-anchor="middle" x="1221.12" y="-9.2" font-family="Times,serif" font-size="14.00">ensures</text>
</g>
<!-- phoenix -->
<g id="node9" class="node">
<title>phoenix</title>
<polygon fill="lightyellow" stroke="black" points="418.25,-395 310.75,-395 310.75,-359 418.25,-359 418.25,-395"/>
<text xml:space="preserve" text-anchor="middle" x="364.5" y="-371.95" font-family="Times,serif" font-size="14.00">Phoenix Patterns</text>
</g>
<!-- ui_decision -->
<g id="node10" class="node">
<title>ui_decision</title>
<polygon fill="lightyellow" stroke="black" points="693,-405.75 518.75,-405.75 518.75,-348.25 693,-348.25 693,-405.75"/>
<text xml:space="preserve" text-anchor="middle" x="605.88" y="-388.45" font-family="Times,serif" font-size="14.00">LiveView vs JS</text>
<text xml:space="preserve" text-anchor="middle" x="605.88" y="-371.95" font-family="Times,serif" font-size="14.00">Decision Point</text>
<text xml:space="preserve" text-anchor="middle" x="605.88" y="-355.45" font-family="Times,serif" font-size="14.00">(guides/LIVEVIEW_VS_JS)</text>
</g>
<!-- phoenix&#45;&gt;ui_decision -->
<g id="edge6" class="edge">
<title>phoenix&#45;&gt;ui_decision</title>
<path fill="none" stroke="black" d="M418.63,-377C444.64,-377 476.81,-377 507.05,-377"/>
<polygon fill="black" stroke="black" points="507.01,-380.5 517.01,-377 507.01,-373.5 507.01,-380.5"/>
<text xml:space="preserve" text-anchor="middle" x="468.5" y="-380.2" font-family="Times,serif" font-size="14.00">first decide</text>
</g>
<!-- ui_decision&#45;&gt;liveview -->
<g id="edge7" class="edge">
<title>ui_decision&#45;&gt;liveview</title>
<path fill="none" stroke="black" d="M693.4,-357.63C699.34,-356.5 705.25,-355.45 711,-354.5 801.49,-339.57 832.05,-367.9 916,-331 927.65,-325.88 938.65,-317.43 947.73,-309.04"/>
<polygon fill="black" stroke="black" points="950.04,-311.68 954.73,-302.18 945.14,-306.68 950.04,-311.68"/>
<text xml:space="preserve" text-anchor="middle" x="813.5" y="-357.7" font-family="Times,serif" font-size="14.00">real&#45;time</text>
</g>
<!-- javascript -->
<g id="node12" class="node">
<title>javascript</title>
<polygon fill="lightyellow" stroke="black" points="1101,-407 1028.75,-407 1028.75,-371 1101,-371 1101,-407"/>
<text xml:space="preserve" text-anchor="middle" x="1064.88" y="-383.95" font-family="Times,serif" font-size="14.00">JavaScript</text>
</g>
<!-- ui_decision&#45;&gt;javascript -->
<g id="edge8" class="edge">
<title>ui_decision&#45;&gt;javascript</title>
<path fill="none" stroke="black" d="M693.37,-379.27C789.49,-381.8 941.14,-385.78 1017.16,-387.77"/>
<polygon fill="black" stroke="black" points="1016.65,-391.26 1026.74,-388.02 1016.84,-384.26 1016.65,-391.26"/>
<text xml:space="preserve" text-anchor="middle" x="813.5" y="-388.22" font-family="Times,serif" font-size="14.00">client&#45;side</text>
</g>
<!-- daisyui -->
<g id="node13" class="node">
<title>daisyui</title>
<polygon fill="lightyellow" stroke="black" points="1494.75,-357 1360.25,-357 1360.25,-321 1494.75,-321 1494.75,-357"/>
<text xml:space="preserve" text-anchor="middle" x="1427.5" y="-333.95" font-family="Times,serif" font-size="14.00">DaisyUI Components</text>
</g>
<!-- liveview&#45;&gt;daisyui -->
<g id="edge9" class="edge">
<title>liveview&#45;&gt;daisyui</title>
<path fill="none" stroke="black" d="M1007.81,-292.9C1014.71,-294.72 1021.94,-296.52 1028.75,-298 1138.39,-321.9 1268.16,-331.96 1348.92,-336.14"/>
<polygon fill="black" stroke="black" points="1348.31,-339.61 1358.47,-336.61 1348.65,-332.62 1348.31,-339.61"/>
</g>
<!-- liveview&#45;&gt;markdown_editor -->
<g id="edge11" class="edge">
<title>liveview&#45;&gt;markdown_editor</title>
<path fill="none" stroke="black" d="M1003.46,-264.55C1032.31,-247.42 1077.49,-222.07 1119,-205 1123.38,-203.2 1127.91,-201.45 1132.51,-199.77"/>
<polygon fill="black" stroke="black" points="1133.64,-203.09 1141.92,-196.48 1131.33,-196.48 1133.64,-203.09"/>
</g>
<!-- live_table -->
<g id="node17" class="node">
<title>live_table</title>
<polygon fill="lightcoral" stroke="black" points="1256.88,-304 1185.38,-304 1185.38,-268 1256.88,-268 1256.88,-304"/>
<text xml:space="preserve" text-anchor="middle" x="1221.12" y="-280.95" font-family="Times,serif" font-size="14.00">LiveTable</text>
</g>
<!-- liveview&#45;&gt;live_table -->
<g id="edge13" class="edge">
<title>liveview&#45;&gt;live_table</title>
<path fill="none" stroke="black" d="M1007.68,-283.42C1050.87,-283.94 1125.23,-284.85 1173.53,-285.43"/>
<polygon fill="black" stroke="black" points="1173.36,-288.93 1183.4,-285.55 1173.44,-281.93 1173.36,-288.93"/>
</g>
<!-- liveview&#45;&gt;fly -->
<g id="edge29" class="edge">
<title>liveview&#45;&gt;fly</title>
<path fill="none" stroke="black" d="M1007.68,-275.91C1046.18,-267.95 1109.44,-254.88 1156.94,-245.06"/>
<polygon fill="black" stroke="black" points="1157.47,-248.52 1166.56,-243.07 1156.06,-241.67 1157.47,-248.52"/>
</g>
<!-- javascript&#45;&gt;daisyui -->
<g id="edge10" class="edge">
<title>javascript&#45;&gt;daisyui</title>
<path fill="none" stroke="black" d="M1101.24,-384.5C1153.84,-377.74 1255.76,-364.46 1342.25,-352 1344.3,-351.7 1346.38,-351.4 1348.48,-351.09"/>
<polygon fill="black" stroke="black" points="1348.96,-354.56 1358.34,-349.63 1347.93,-347.64 1348.96,-354.56"/>
</g>
<!-- css -->
<g id="node14" class="node">
<title>css</title>
<polygon fill="lightyellow" stroke="black" points="146.12,-395 49.12,-395 49.12,-359 146.12,-359 146.12,-395"/>
<text xml:space="preserve" text-anchor="middle" x="97.62" y="-371.95" font-family="Times,serif" font-size="14.00">CSS Standards</text>
</g>
<!-- css_linter -->
<g id="node16" class="node">
<title>css_linter</title>
<polygon fill="lightcoral" stroke="black" points="1010.75,-70 934,-70 934,-34 1010.75,-34 1010.75,-70"/>
<text xml:space="preserve" text-anchor="middle" x="972.38" y="-46.95" font-family="Times,serif" font-size="14.00">CSS Linter</text>
</g>
<!-- maestro_coord -->
<g id="node22" class="node">
<title>maestro_coord</title>
<polygon fill="plum" stroke="black" points="1289.12,-136 1153.12,-136 1153.12,-100 1289.12,-100 1289.12,-136"/>
<text xml:space="preserve" text-anchor="middle" x="1221.12" y="-112.95" font-family="Times,serif" font-size="14.00">Maestro Coordination</text>
</g>
<!-- css_linter&#45;&gt;maestro_coord -->
<g id="edge26" class="edge">
<title>css_linter&#45;&gt;maestro_coord</title>
<path fill="none" stroke="black" d="M1011.14,-60.16C1036.73,-66.01 1071.18,-74.5 1101,-84 1109.18,-86.6 1110.84,-88.33 1119,-91 1126.34,-93.4 1134.02,-95.74 1141.74,-97.99"/>
<polygon fill="black" stroke="black" points="1140.61,-101.31 1151.19,-100.68 1142.53,-94.57 1140.61,-101.31"/>
</g>
<!-- live_table&#45;&gt;daisyui -->
<g id="edge14" class="edge">
<title>live_table&#45;&gt;daisyui</title>
<path fill="none" stroke="black" d="M1257.26,-295.11C1282.47,-301.65 1317.45,-310.72 1349.05,-318.92"/>
<polygon fill="black" stroke="black" points="1348.05,-322.27 1358.61,-321.39 1349.81,-315.5 1348.05,-322.27"/>
</g>
<!-- calvin_domain -->
<g id="node20" class="node">
<title>calvin_domain</title>
<polygon fill="plum" stroke="black" points="1479.38,-299 1375.62,-299 1375.62,-263 1479.38,-263 1479.38,-299"/>
<text xml:space="preserve" text-anchor="middle" x="1427.5" y="-275.95" font-family="Times,serif" font-size="14.00">Calvin Business</text>
</g>
<!-- live_table&#45;&gt;calvin_domain -->
<g id="edge28" class="edge">
<title>live_table&#45;&gt;calvin_domain</title>
<path fill="none" stroke="black" d="M1257.26,-285.14C1286.61,-284.42 1329.17,-283.38 1364.27,-282.52"/>
<polygon fill="black" stroke="black" points="1363.95,-286.03 1373.86,-282.29 1363.78,-279.03 1363.95,-286.03"/>
</g>
<!-- sanjuan_domain -->
<g id="node21" class="node">
<title>sanjuan_domain</title>
<polygon fill="plum" stroke="black" points="1485.38,-237 1369.62,-237 1369.62,-201 1485.38,-201 1485.38,-237"/>
<text xml:space="preserve" text-anchor="middle" x="1427.5" y="-213.95" font-family="Times,serif" font-size="14.00">SanJuan Analytics</text>
</g>
<!-- live_table&#45;&gt;sanjuan_domain -->
<g id="edge27" class="edge">
<title>live_table&#45;&gt;sanjuan_domain</title>
<path fill="none" stroke="black" d="M1257.03,-277.68C1276.64,-272.75 1301.48,-266.1 1323.25,-259 1339.06,-253.84 1355.98,-247.6 1371.46,-241.6"/>
<polygon fill="black" stroke="black" points="1372.47,-244.96 1380.5,-238.05 1369.91,-238.45 1372.47,-244.96"/>
</g>
<!-- startup_json -->
<g id="node19" class="node">
<title>startup_json</title>
<polygon fill="lightcoral" stroke="black" points="1302.62,-81.5 1139.62,-81.5 1139.62,-40.5 1302.62,-40.5 1302.62,-81.5"/>
<text xml:space="preserve" text-anchor="middle" x="1221.12" y="-64.2" font-family="Times,serif" font-size="14.00">Startup JSON</text>
<text xml:space="preserve" text-anchor="middle" x="1221.12" y="-47.7" font-family="Times,serif" font-size="14.00">(guides/STARTUP_JSON)</text>
</g>
<!-- startup_json&#45;&gt;git -->
<g id="edge20" class="edge">
<title>startup_json&#45;&gt;git</title>
<path fill="none" stroke="black" d="M1302.9,-61C1325.3,-61 1349.13,-61 1369.83,-61"/>
<polygon fill="black" stroke="black" points="1369.78,-64.5 1379.78,-61 1369.78,-57.5 1369.78,-64.5"/>
</g>
<!-- maestro_coord&#45;&gt;git -->
<g id="edge25" class="edge">
<title>maestro_coord&#45;&gt;git</title>
<path fill="none" stroke="black" d="M1289.36,-100.27C1300.68,-97.22 1312.31,-94.05 1323.25,-91 1338.59,-86.72 1355.17,-81.97 1370.46,-77.53"/>
<polygon fill="black" stroke="black" points="1371.25,-80.94 1379.87,-74.78 1369.29,-74.22 1371.25,-80.94"/>
</g>
<!-- maestro_coord&#45;&gt;calvin_domain -->
<g id="edge23" class="edge">
<title>maestro_coord&#45;&gt;calvin_domain</title>
<path fill="none" stroke="black" d="M1289.57,-127.11C1301.88,-131.28 1313.79,-137.31 1323.25,-146 1358.14,-178.07 1329.02,-210.36 1360.25,-246 1363.57,-249.79 1367.4,-253.23 1371.52,-256.35"/>
<polygon fill="black" stroke="black" points="1369.38,-259.13 1379.63,-261.81 1373.29,-253.32 1369.38,-259.13"/>
</g>
<!-- maestro_coord&#45;&gt;sanjuan_domain -->
<g id="edge24" class="edge">
<title>maestro_coord&#45;&gt;sanjuan_domain</title>
<path fill="none" stroke="black" d="M1289.4,-133.11C1300.95,-136.69 1312.63,-140.97 1323.25,-146 1349.79,-158.59 1376.8,-177.96 1396.53,-193.58"/>
<polygon fill="black" stroke="black" points="1394.17,-196.18 1404.15,-199.73 1398.56,-190.73 1394.17,-196.18"/>
</g>
<!-- circle_learnings -->
<g id="node23" class="node">
<title>circle_learnings</title>
<polygon fill="plum" stroke="black" points="195.25,-340.5 0,-340.5 0,-299.5 195.25,-299.5 195.25,-340.5"/>
<text xml:space="preserve" text-anchor="middle" x="97.62" y="-323.2" font-family="Times,serif" font-size="14.00">Circle Patterns</text>
<text xml:space="preserve" text-anchor="middle" x="97.62" y="-306.7" font-family="Times,serif" font-size="14.00">(guides/CIRCLE_LEARNINGS)</text>
</g>
<!-- circle_learnings&#45;&gt;ash_resource -->
<g id="edge17" class="edge">
<title>circle_learnings&#45;&gt;ash_resource</title>
<path fill="none" stroke="black" d="M138.85,-299.04C187.05,-273.93 267.6,-231.96 318.02,-205.69"/>
<polygon fill="black" stroke="black" points="319.4,-208.92 326.65,-201.2 316.16,-202.72 319.4,-208.92"/>
<text xml:space="preserve" text-anchor="middle" x="253" y="-262.46" font-family="Times,serif" font-size="14.00">junction tables</text>
</g>
<!-- circle_learnings&#45;&gt;liveview -->
<g id="edge15" class="edge">
<title>circle_learnings&#45;&gt;liveview</title>
<path fill="none" stroke="black" d="M195.48,-322.56C381.22,-326.75 781.03,-332.12 916,-305 919.39,-304.32 922.84,-303.44 926.27,-302.43"/>
<polygon fill="black" stroke="black" points="927.29,-305.78 935.67,-299.3 925.07,-299.14 927.29,-305.78"/>
<text xml:space="preserve" text-anchor="middle" x="468.5" y="-329.2" font-family="Times,serif" font-size="14.00">multi&#45;select</text>
</g>
<!-- circle_learnings&#45;&gt;daisyui -->
<g id="edge16" class="edge">
<title>circle_learnings&#45;&gt;daisyui</title>
<path fill="none" stroke="black" d="M170.58,-340.92C178.97,-343.77 187.35,-346.82 195.25,-350 272.8,-381.16 279.92,-434 363.5,-434 363.5,-434 363.5,-434 1222.12,-434 1288.5,-434 1356.64,-392.29 1395.07,-364.15"/>
<polygon fill="black" stroke="black" points="1397.07,-367.02 1402.97,-358.22 1392.87,-361.42 1397.07,-367.02"/>
<text xml:space="preserve" text-anchor="middle" x="813.5" y="-437.2" font-family="Times,serif" font-size="14.00">tag UI</text>
</g>
</g>
</svg>
