<?xml version="1.0" encoding="UTF-8" standalone="no"?>
<!DOCTYPE svg PUBLIC "-//W3C//DTD SVG 1.1//EN"
 "http://www.w3.org/Graphics/SVG/1.1/DTD/svg11.dtd">
<!-- Generated by graphviz version 14.0.2 (20251019.1705)
 -->
<!-- Title: GuidelineConcepts Pages: 1 -->
<svg width="1980pt" height="537pt"
 viewBox="0.00 0.00 1980.00 537.00" xmlns="http://www.w3.org/2000/svg" xmlns:xlink="http://www.w3.org/1999/xlink">
<g id="graph0" class="graph" transform="scale(1 1) rotate(0) translate(4 532.5)">
<title>GuidelineConcepts</title>
<polygon fill="white" stroke="none" points="-4,4 -4,-532.5 1975.5,-532.5 1975.5,4 -4,4"/>
<g id="clust1" class="cluster">
<title>cluster_core</title>
<polygon fill="lightgrey" stroke="lightgrey" points="1417.25,-389 1417.25,-471 1963.5,-471 1963.5,-389 1417.25,-389"/>
<text xml:space="preserve" text-anchor="middle" x="1690.38" y="-453.7" font-family="Times,serif" font-size="14.00">Core Guidelines</text>
</g>
<g id="clust2" class="cluster">
<title>cluster_data</title>
<polygon fill="lightgrey" stroke="lightgrey" points="8,-304 8,-439 823,-439 823,-304 8,-304"/>
<text xml:space="preserve" text-anchor="middle" x="415.5" y="-421.7" font-family="Times,serif" font-size="14.00">Database Layer</text>
</g>
<g id="clust3" class="cluster">
<title>cluster_ui</title>
<polygon fill="lightgrey" stroke="lightgrey" points="441.25,-26 441.25,-108 1298.25,-108 1298.25,-26 441.25,-26"/>
<text xml:space="preserve" text-anchor="middle" x="869.75" y="-90.7" font-family="Times,serif" font-size="14.00">UI Layer</text>
</g>
<g id="clust4" class="cluster">
<title>cluster_tools</title>
<polygon fill="lightgrey" stroke="lightgrey" points="912.75,-116 912.75,-316 1077.5,-316 1077.5,-116 912.75,-116"/>
<text xml:space="preserve" text-anchor="middle" x="995.12" y="-298.7" font-family="Times,serif" font-size="14.00">Tools &amp; Infrastructure</text>
</g>
<g id="clust5" class="cluster">
<title>cluster_projects</title>
<polygon fill="lightgrey" stroke="lightgrey" points="1165.75,-240 1165.75,-381 1549.75,-381 1549.75,-240 1165.75,-240"/>
<text xml:space="preserve" text-anchor="middle" x="1357.75" y="-363.7" font-family="Times,serif" font-size="14.00">Projects</text>
</g>
<!-- git -->
<g id="node1" class="node">
<title>git</title>
<polygon fill="lightblue" stroke="black" points="1530.5,-438.5 1425.25,-438.5 1425.25,-397.5 1530.5,-397.5 1530.5,-438.5"/>
<text xml:space="preserve" text-anchor="middle" x="1477.88" y="-421.2" font-family="Times,serif" font-size="14.00">Git Workflow</text>
<text xml:space="preserve" text-anchor="middle" x="1477.88" y="-404.7" font-family="Times,serif" font-size="14.00">(GUIDELINES)</text>
</g>
<!-- verification -->
<g id="node2" class="node">
<title>verification</title>
<polygon fill="lightblue" stroke="black" points="1761.75,-438.5 1650.5,-438.5 1650.5,-397.5 1761.75,-397.5 1761.75,-438.5"/>
<text xml:space="preserve" text-anchor="middle" x="1706.12" y="-421.2" font-family="Times,serif" font-size="14.00">Code Verification</text>
<text xml:space="preserve" text-anchor="middle" x="1706.12" y="-404.7" font-family="Times,serif" font-size="14.00">(GUIDELINES)</text>
</g>
<!-- git&#45;&gt;verification -->
<g id="edge12" class="edge">
<title>git&#45;&gt;verification</title>
<path fill="none" stroke="black" d="M1530.78,-418C1562.9,-418 1604.43,-418 1638.91,-418"/>
<polygon fill="black" stroke="black" points="1638.79,-421.5 1648.79,-418 1638.79,-414.5 1638.79,-421.5"/>
<text xml:space="preserve" text-anchor="middle" x="1596.12" y="-421.2" font-family="Times,serif" font-size="14.00">before merge</text>
</g>
<!-- communication -->
<g id="node3" class="node">
<title>communication</title>
<polygon fill="lightblue" stroke="black" points="1955.5,-438.5 1850.25,-438.5 1850.25,-397.5 1955.5,-397.5 1955.5,-438.5"/>
<text xml:space="preserve" text-anchor="middle" x="1902.88" y="-421.2" font-family="Times,serif" font-size="14.00">Communication</text>
<text xml:space="preserve" text-anchor="middle" x="1902.88" y="-404.7" font-family="Times,serif" font-size="14.00">(GUIDELINES)</text>
</g>
<!-- verification&#45;&gt;communication -->
<g id="edge13" class="edge">
<title>verification&#45;&gt;communication</title>
<path fill="none" stroke="black" d="M1762.15,-418C1785.94,-418 1813.92,-418 1838.57,-418"/>
<polygon fill="black" stroke="black" points="1838.48,-421.5 1848.48,-418 1838.48,-414.5 1838.48,-421.5"/>
<text xml:space="preserve" text-anchor="middle" x="1806" y="-421.2" font-family="Times,serif" font-size="14.00">report via</text>
</g>
<!-- db_pk -->
<g id="node4" class="node">
<title>db_pk</title>
<polygon fill="lightgreen" stroke="black" points="121.25,-353.5 16,-353.5 16,-312.5 121.25,-312.5 121.25,-353.5"/>
<text xml:space="preserve" text-anchor="middle" x="68.62" y="-336.2" font-family="Times,serif" font-size="14.00">Primary Keys</text>
<text xml:space="preserve" text-anchor="middle" x="68.62" y="-319.7" font-family="Times,serif" font-size="14.00">(GUIDELINES)</text>
</g>
<!-- ash_resource -->
<g id="node5" class="node">
<title>ash_resource</title>
<polygon fill="lightgreen" stroke="black" points="301.5,-353.5 196.25,-353.5 196.25,-312.5 301.5,-312.5 301.5,-353.5"/>
<text xml:space="preserve" text-anchor="middle" x="248.88" y="-336.2" font-family="Times,serif" font-size="14.00">Ash Resources</text>
<text xml:space="preserve" text-anchor="middle" x="248.88" y="-319.7" font-family="Times,serif" font-size="14.00">(GUIDELINES)</text>
</g>
<!-- db_pk&#45;&gt;ash_resource -->
<g id="edge1" class="edge">
<title>db_pk&#45;&gt;ash_resource</title>
<path fill="none" stroke="black" d="M121.66,-333C141.25,-333 163.75,-333 184.28,-333"/>
<polygon fill="black" stroke="black" points="184.26,-336.5 194.26,-333 184.26,-329.5 184.26,-336.5"/>
<text xml:space="preserve" text-anchor="middle" x="158.75" y="-336.2" font-family="Times,serif" font-size="14.00">used in</text>
</g>
<!-- calvin_domain -->
<g id="node15" class="node">
<title>calvin_domain</title>
<polygon fill="plum" stroke="black" points="1537.62,-348.5 1418.12,-348.5 1418.12,-307.5 1537.62,-307.5 1537.62,-348.5"/>
<text xml:space="preserve" text-anchor="middle" x="1477.88" y="-331.2" font-family="Times,serif" font-size="14.00">Calvin Business</text>
<text xml:space="preserve" text-anchor="middle" x="1477.88" y="-314.7" font-family="Times,serif" font-size="14.00">(calvin/README)</text>
</g>
<!-- db_pk&#45;&gt;calvin_domain -->
<g id="edge16" class="edge">
<title>db_pk&#45;&gt;calvin_domain</title>
<path fill="none" stroke="black" d="M78.41,-353.88C99.81,-401.1 159.5,-512 247.88,-512 247.88,-512 247.88,-512 1242.75,-512 1274.38,-512 1282.77,-504.51 1309.75,-488 1354.61,-460.56 1360.11,-445.43 1396,-407 1404.62,-397.77 1405.3,-394.16 1414,-385 1423.26,-375.25 1433.91,-365.21 1443.78,-356.32"/>
<polygon fill="black" stroke="black" points="1445.92,-359.11 1451.07,-349.85 1441.27,-353.88 1445.92,-359.11"/>
<text xml:space="preserve" text-anchor="middle" x="762.38" y="-515.2" font-family="Times,serif" font-size="14.00">applied in</text>
</g>
<!-- sanjuan_domain -->
<g id="node16" class="node">
<title>sanjuan_domain</title>
<polygon fill="plum" stroke="black" points="1541.75,-289.5 1414,-289.5 1414,-248.5 1541.75,-248.5 1541.75,-289.5"/>
<text xml:space="preserve" text-anchor="middle" x="1477.88" y="-272.2" font-family="Times,serif" font-size="14.00">SanJuan Analytics</text>
<text xml:space="preserve" text-anchor="middle" x="1477.88" y="-255.7" font-family="Times,serif" font-size="14.00">(sanjuan/README)</text>
</g>
<!-- db_pk&#45;&gt;sanjuan_domain -->
<g id="edge17" class="edge">
<title>db_pk&#45;&gt;sanjuan_domain</title>
<path fill="none" stroke="black" d="M70.87,-312.17C76.44,-239.27 105.58,0 247.88,0 247.88,0 247.88,0 1242.75,0 1367.63,0 1441.07,-167 1466.6,-237.84"/>
<polygon fill="black" stroke="black" points="1463.17,-238.63 1469.79,-246.91 1469.78,-236.32 1463.17,-238.63"/>
<text xml:space="preserve" text-anchor="middle" x="762.38" y="-3.2" font-family="Times,serif" font-size="14.00">applied in</text>
</g>
<!-- poly_relations -->
<g id="node6" class="node">
<title>poly_relations</title>
<polygon fill="lightgreen" stroke="black" points="604,-353.5 402,-353.5 402,-312.5 604,-312.5 604,-353.5"/>
<text xml:space="preserve" text-anchor="middle" x="503" y="-336.2" font-family="Times,serif" font-size="14.00">Polymorphic Relations</text>
<text xml:space="preserve" text-anchor="middle" x="503" y="-319.7" font-family="Times,serif" font-size="14.00">(POLYMORPHIC_RELATIONS)</text>
</g>
<!-- ash_resource&#45;&gt;poly_relations -->
<g id="edge2" class="edge">
<title>ash_resource&#45;&gt;poly_relations</title>
<path fill="none" stroke="black" d="M301.81,-333C327.49,-333 359.53,-333 390.4,-333"/>
<polygon fill="black" stroke="black" points="390.19,-336.5 400.19,-333 390.19,-329.5 390.19,-336.5"/>
<text xml:space="preserve" text-anchor="middle" x="351.75" y="-336.2" font-family="Times,serif" font-size="14.00">implements</text>
</g>
<!-- migrations -->
<g id="node7" class="node">
<title>migrations</title>
<polygon fill="lightgreen" stroke="black" points="815,-406.5 709.75,-406.5 709.75,-365.5 815,-365.5 815,-406.5"/>
<text xml:space="preserve" text-anchor="middle" x="762.38" y="-389.2" font-family="Times,serif" font-size="14.00">Data Migrations</text>
<text xml:space="preserve" text-anchor="middle" x="762.38" y="-372.7" font-family="Times,serif" font-size="14.00">(GUIDELINES)</text>
</g>
<!-- ash_resource&#45;&gt;migrations -->
<g id="edge3" class="edge">
<title>ash_resource&#45;&gt;migrations</title>
<path fill="none" stroke="black" d="M301.69,-349.77C307.66,-351.36 313.69,-352.82 319.5,-354 358.06,-361.85 501.47,-378.55 622,-385 646.81,-386.33 674.15,-386.75 697.99,-386.78"/>
<polygon fill="black" stroke="black" points="697.87,-390.28 707.87,-386.77 697.87,-383.28 697.87,-390.28"/>
<text xml:space="preserve" text-anchor="middle" x="503" y="-387.03" font-family="Times,serif" font-size="14.00">creates</text>
</g>
<!-- liveview -->
<g id="node9" class="node">
<title>liveview</title>
<polygon fill="lightyellow" stroke="black" points="808.25,-75.5 716.5,-75.5 716.5,-34.5 808.25,-34.5 808.25,-75.5"/>
<text xml:space="preserve" text-anchor="middle" x="762.38" y="-58.2" font-family="Times,serif" font-size="14.00">LiveView</text>
<text xml:space="preserve" text-anchor="middle" x="762.38" y="-41.7" font-family="Times,serif" font-size="14.00">(LIVEVIEW)</text>
</g>
<!-- ash_resource&#45;&gt;liveview -->
<g id="edge14" class="edge">
<title>ash_resource&#45;&gt;liveview</title>
<path fill="none" stroke="black" d="M261.87,-312.17C274.17,-292.37 294.93,-262.9 319.5,-244 383.3,-194.94 601.89,-112.49 705.74,-74.83"/>
<polygon fill="black" stroke="black" points="706.68,-78.21 714.89,-71.52 704.3,-71.63 706.68,-78.21"/>
<text xml:space="preserve" text-anchor="middle" x="503" y="-199.83" font-family="Times,serif" font-size="14.00">displayed in</text>
</g>
<!-- fly -->
<g id="node14" class="node">
<title>fly</title>
<polygon fill="lightcoral" stroke="black" points="1069.5,-224.5 920.75,-224.5 920.75,-183.5 1069.5,-183.5 1069.5,-224.5"/>
<text xml:space="preserve" text-anchor="middle" x="995.12" y="-207.2" font-family="Times,serif" font-size="14.00">Fly Deployment</text>
<text xml:space="preserve" text-anchor="middle" x="995.12" y="-190.7" font-family="Times,serif" font-size="14.00">(FLY_DEPLOYMENT)</text>
</g>
<!-- ash_resource&#45;&gt;fly -->
<g id="edge26" class="edge">
<title>ash_resource&#45;&gt;fly</title>
<path fill="none" stroke="black" d="M301.84,-319.85C373.4,-302.33 506.54,-271.9 622,-257.5 745.96,-242.04 788.52,-294.56 902.75,-244 908.5,-241.46 907.46,-237.39 912.75,-234 914.86,-232.65 917.04,-231.35 919.28,-230.09"/>
<polygon fill="black" stroke="black" points="920.72,-233.29 928,-225.59 917.51,-227.06 920.72,-233.29"/>
<text xml:space="preserve" text-anchor="middle" x="656.88" y="-260.7" font-family="Times,serif" font-size="14.00">deployed via</text>
</g>
<!-- poly_relations&#45;&gt;migrations -->
<g id="edge4" class="edge">
<title>poly_relations&#45;&gt;migrations</title>
<path fill="none" stroke="black" d="M604.1,-350.79C632.5,-356.14 663.4,-362.26 691.75,-368.5 693.9,-368.97 696.08,-369.46 698.28,-369.97"/>
<polygon fill="black" stroke="black" points="697.36,-373.35 707.89,-372.22 698.96,-366.53 697.36,-373.35"/>
<text xml:space="preserve" text-anchor="middle" x="656.88" y="-371.7" font-family="Times,serif" font-size="14.00">requires</text>
</g>
<!-- poly_relations&#45;&gt;liveview -->
<g id="edge15" class="edge">
<title>poly_relations&#45;&gt;liveview</title>
<path fill="none" stroke="black" d="M588.9,-312.04C634.84,-300.02 683.82,-285.8 691.75,-278 744.43,-226.25 757.39,-135.31 760.49,-87.1"/>
<polygon fill="black" stroke="black" points="763.97,-87.5 761,-77.33 756.98,-87.13 763.97,-87.5"/>
<text xml:space="preserve" text-anchor="middle" x="656.88" y="-305.67" font-family="Times,serif" font-size="14.00">displayed in</text>
</g>
<!-- maestro_coord -->
<g id="node17" class="node">
<title>maestro_coord</title>
<polygon fill="plum" stroke="black" points="1309.75,-348.5 1173.75,-348.5 1173.75,-307.5 1309.75,-307.5 1309.75,-348.5"/>
<text xml:space="preserve" text-anchor="middle" x="1241.75" y="-331.2" font-family="Times,serif" font-size="14.00">Maestro Coordination</text>
<text xml:space="preserve" text-anchor="middle" x="1241.75" y="-314.7" font-family="Times,serif" font-size="14.00">(maestro/README)</text>
</g>
<!-- poly_relations&#45;&gt;maestro_coord -->
<g id="edge18" class="edge">
<title>poly_relations&#45;&gt;maestro_coord</title>
<path fill="none" stroke="black" d="M604.13,-332.32C752.36,-331.31 1027.17,-329.45 1162,-328.53"/>
<polygon fill="black" stroke="black" points="1161.94,-332.04 1171.91,-328.47 1161.89,-325.04 1161.94,-332.04"/>
<text xml:space="preserve" text-anchor="middle" x="867.88" y="-333.93" font-family="Times,serif" font-size="14.00">used in tasks</text>
</g>
<!-- migrations&#45;&gt;verification -->
<g id="edge5" class="edge">
<title>migrations&#45;&gt;verification</title>
<path fill="none" stroke="black" d="M798.79,-406.86C842.96,-430.86 921.52,-467 994.12,-467 994.12,-467 994.12,-467 1478.88,-467 1533.71,-467 1594.36,-453.08 1639.05,-440.08"/>
<polygon fill="black" stroke="black" points="1640.02,-443.44 1648.61,-437.24 1638.02,-436.74 1640.02,-443.44"/>
<text xml:space="preserve" text-anchor="middle" x="1241.75" y="-470.2" font-family="Times,serif" font-size="14.00">requires</text>
</g>
<!-- phoenix -->
<g id="node8" class="node">
<title>phoenix</title>
<polygon fill="lightyellow" stroke="black" points="556.75,-75.5 449.25,-75.5 449.25,-34.5 556.75,-34.5 556.75,-75.5"/>
<text xml:space="preserve" text-anchor="middle" x="503" y="-58.2" font-family="Times,serif" font-size="14.00">Phoenix Patterns</text>
<text xml:space="preserve" text-anchor="middle" x="503" y="-41.7" font-family="Times,serif" font-size="14.00">(LIVEVIEW)</text>
</g>
<!-- phoenix&#45;&gt;liveview -->
<g id="edge6" class="edge">
<title>phoenix&#45;&gt;liveview</title>
<path fill="none" stroke="black" d="M557.02,-55C600.11,-55 660.76,-55 704.78,-55"/>
<polygon fill="black" stroke="black" points="704.65,-58.5 714.65,-55 704.65,-51.5 704.65,-58.5"/>
<text xml:space="preserve" text-anchor="middle" x="656.88" y="-58.2" font-family="Times,serif" font-size="14.00">includes</text>
</g>
<!-- daisyui -->
<g id="node10" class="node">
<title>daisyui</title>
<polygon fill="lightyellow" stroke="black" points="1062.38,-75.5 927.88,-75.5 927.88,-34.5 1062.38,-34.5 1062.38,-75.5"/>
<text xml:space="preserve" text-anchor="middle" x="995.12" y="-58.2" font-family="Times,serif" font-size="14.00">DaisyUI Components</text>
<text xml:space="preserve" text-anchor="middle" x="995.12" y="-41.7" font-family="Times,serif" font-size="14.00">(DAISYUI)</text>
</g>
<!-- liveview&#45;&gt;daisyui -->
<g id="edge7" class="edge">
<title>liveview&#45;&gt;daisyui</title>
<path fill="none" stroke="black" d="M808.69,-55C839.24,-55 880.35,-55 916.1,-55"/>
<polygon fill="black" stroke="black" points="915.98,-58.5 925.98,-55 915.98,-51.5 915.98,-58.5"/>
<text xml:space="preserve" text-anchor="middle" x="867.88" y="-58.2" font-family="Times,serif" font-size="14.00">styles with</text>
</g>
<!-- live_table -->
<g id="node13" class="node">
<title>live_table</title>
<polygon fill="lightcoral" stroke="black" points="1048.12,-283.5 942.12,-283.5 942.12,-242.5 1048.12,-242.5 1048.12,-283.5"/>
<text xml:space="preserve" text-anchor="middle" x="995.12" y="-266.2" font-family="Times,serif" font-size="14.00">LiveTable</text>
<text xml:space="preserve" text-anchor="middle" x="995.12" y="-249.7" font-family="Times,serif" font-size="14.00">(LIVE_TABLE)</text>
</g>
<!-- liveview&#45;&gt;live_table -->
<g id="edge10" class="edge">
<title>liveview&#45;&gt;live_table</title>
<path fill="none" stroke="black" d="M768.64,-75.92C777.3,-106.43 797.25,-163.27 833,-198 859.73,-223.96 898.18,-240 930.82,-249.65"/>
<polygon fill="black" stroke="black" points="929.61,-252.95 940.18,-252.28 931.5,-246.21 929.61,-252.95"/>
<text xml:space="preserve" text-anchor="middle" x="867.88" y="-242.54" font-family="Times,serif" font-size="14.00">can use</text>
</g>
<!-- liveview&#45;&gt;fly -->
<g id="edge25" class="edge">
<title>liveview&#45;&gt;fly</title>
<path fill="none" stroke="black" d="M775.66,-75.79C788.03,-95.17 808.71,-123.76 833,-142 855.64,-159.01 883.52,-171.9 909.68,-181.41"/>
<polygon fill="black" stroke="black" points="908.36,-184.65 918.95,-184.65 910.67,-178.05 908.36,-184.65"/>
<text xml:space="preserve" text-anchor="middle" x="867.88" y="-180.64" font-family="Times,serif" font-size="14.00">deployed via</text>
</g>
<!-- css -->
<g id="node11" class="node">
<title>css</title>
<polygon fill="lightyellow" stroke="black" points="1290.25,-75.5 1193.25,-75.5 1193.25,-34.5 1290.25,-34.5 1290.25,-75.5"/>
<text xml:space="preserve" text-anchor="middle" x="1241.75" y="-58.2" font-family="Times,serif" font-size="14.00">CSS Standards</text>
<text xml:space="preserve" text-anchor="middle" x="1241.75" y="-41.7" font-family="Times,serif" font-size="14.00">(DAISYUI)</text>
</g>
<!-- daisyui&#45;&gt;css -->
<g id="edge8" class="edge">
<title>daisyui&#45;&gt;css</title>
<path fill="none" stroke="black" d="M1062.65,-55C1099.8,-55 1145.69,-55 1181.58,-55"/>
<polygon fill="black" stroke="black" points="1181.35,-58.5 1191.35,-55 1181.35,-51.5 1181.35,-58.5"/>
<text xml:space="preserve" text-anchor="middle" x="1121.62" y="-58.2" font-family="Times,serif" font-size="14.00">defines</text>
</g>
<!-- css_linter -->
<g id="node12" class="node">
<title>css_linter</title>
<polygon fill="lightcoral" stroke="black" points="1039.5,-165.5 950.75,-165.5 950.75,-124.5 1039.5,-124.5 1039.5,-165.5"/>
<text xml:space="preserve" text-anchor="middle" x="995.12" y="-148.2" font-family="Times,serif" font-size="14.00">CSS Linter</text>
<text xml:space="preserve" text-anchor="middle" x="995.12" y="-131.7" font-family="Times,serif" font-size="14.00">(usage_rules)</text>
</g>
<!-- css&#45;&gt;css_linter -->
<g id="edge9" class="edge">
<title>css&#45;&gt;css_linter</title>
<path fill="none" stroke="black" d="M1192.84,-64.95C1161.58,-72.67 1120.58,-85.19 1087.5,-103.5 1082.4,-106.32 1082.49,-108.98 1077.5,-112 1068.97,-117.17 1059.5,-121.85 1050.11,-125.95"/>
<polygon fill="black" stroke="black" points="1048.87,-122.67 1040.99,-129.76 1051.57,-129.13 1048.87,-122.67"/>
<text xml:space="preserve" text-anchor="middle" x="1121.62" y="-106.7" font-family="Times,serif" font-size="14.00">analyzed by</text>
</g>
<!-- css_linter&#45;&gt;maestro_coord -->
<g id="edge22" class="edge">
<title>css_linter&#45;&gt;maestro_coord</title>
<path fill="none" stroke="black" d="M1039.88,-155.94C1052.79,-160.48 1066.41,-166.69 1077.5,-175 1130.2,-214.48 1114.52,-252.64 1165.75,-294 1169,-296.62 1172.49,-299.09 1176.11,-301.4"/>
<polygon fill="black" stroke="black" points="1174.26,-304.38 1184.66,-306.4 1177.79,-298.33 1174.26,-304.38"/>
<text xml:space="preserve" text-anchor="middle" x="1121.62" y="-287.33" font-family="Times,serif" font-size="14.00">integrated in</text>
</g>
<!-- live_table&#45;&gt;daisyui -->
<g id="edge11" class="edge">
<title>live_table&#45;&gt;daisyui</title>
<path fill="none" stroke="black" d="M942.01,-250.65C931.56,-246.54 921.22,-241.12 912.75,-234 824.32,-159.64 834.5,-161.2 859.08,-121.75 872.3,-100.55 894.42,-85.89 917.04,-75.84"/>
<polygon fill="black" stroke="black" points="918.13,-79.18 926.03,-72.12 915.45,-72.71 918.13,-79.18"/>
<text xml:space="preserve" text-anchor="middle" x="867.88" y="-124.95" font-family="Times,serif" font-size="14.00">styled with</text>
</g>
<!-- live_table&#45;&gt;calvin_domain -->
<g id="edge24" class="edge">
<title>live_table&#45;&gt;calvin_domain</title>
<path fill="none" stroke="black" d="M1048.27,-262.39C1141.63,-261.9 1333.43,-263.76 1396,-286 1405.3,-289.3 1405.48,-294.02 1414,-299 1415.64,-299.96 1417.32,-300.91 1419.02,-301.85"/>
<polygon fill="black" stroke="black" points="1417.18,-304.84 1427.66,-306.4 1420.44,-298.64 1417.18,-304.84"/>
<text xml:space="preserve" text-anchor="middle" x="1241.75" y="-273.76" font-family="Times,serif" font-size="14.00">used in</text>
</g>
<!-- live_table&#45;&gt;sanjuan_domain -->
<g id="edge23" class="edge">
<title>live_table&#45;&gt;sanjuan_domain</title>
<path fill="none" stroke="black" d="M1048.56,-251.87C1081.93,-245.37 1126.17,-237.8 1165.75,-234.5 1267.84,-225.98 1295.7,-224.17 1396,-245 1398.15,-245.45 1400.33,-245.92 1402.52,-246.43"/>
<polygon fill="black" stroke="black" points="1401.54,-249.79 1412.09,-248.76 1403.2,-242.99 1401.54,-249.79"/>
<text xml:space="preserve" text-anchor="middle" x="1241.75" y="-237.7" font-family="Times,serif" font-size="14.00">used in</text>
</g>
<!-- fly&#45;&gt;verification -->
<g id="edge27" class="edge">
<title>fly&#45;&gt;verification</title>
<path fill="none" stroke="black" d="M1069.78,-189.11C1181.42,-170.56 1396.65,-150.78 1549.75,-236 1614.17,-271.86 1663.94,-345.46 1688.42,-387.25"/>
<polygon fill="black" stroke="black" points="1685.33,-388.89 1693.33,-395.83 1691.4,-385.41 1685.33,-388.89"/>
<text xml:space="preserve" text-anchor="middle" x="1361.88" y="-186.71" font-family="Times,serif" font-size="14.00">tested after</text>
</g>
<!-- maestro_coord&#45;&gt;git -->
<g id="edge21" class="edge">
<title>maestro_coord&#45;&gt;git</title>
<path fill="none" stroke="black" d="M1297.35,-348.99C1332.4,-362.46 1378.01,-380 1414.49,-394.02"/>
<polygon fill="black" stroke="black" points="1413,-397.2 1423.59,-397.52 1415.52,-390.66 1413,-397.2"/>
<text xml:space="preserve" text-anchor="middle" x="1361.88" y="-389.52" font-family="Times,serif" font-size="14.00">manages via</text>
</g>
<!-- maestro_coord&#45;&gt;calvin_domain -->
<g id="edge19" class="edge">
<title>maestro_coord&#45;&gt;calvin_domain</title>
<path fill="none" stroke="black" d="M1310.15,-328C1340.34,-328 1375.93,-328 1406.47,-328"/>
<polygon fill="black" stroke="black" points="1406.38,-331.5 1416.38,-328 1406.38,-324.5 1406.38,-331.5"/>
<text xml:space="preserve" text-anchor="middle" x="1361.88" y="-331.2" font-family="Times,serif" font-size="14.00">coordinates</text>
</g>
<!-- maestro_coord&#45;&gt;sanjuan_domain -->
<g id="edge20" class="edge">
<title>maestro_coord&#45;&gt;sanjuan_domain</title>
<path fill="none" stroke="black" d="M1310.15,-311.01C1339.02,-303.74 1372.84,-295.22 1402.44,-287.76"/>
<polygon fill="black" stroke="black" points="1403.25,-291.16 1412.09,-285.33 1401.54,-284.38 1403.25,-291.16"/>
<text xml:space="preserve" text-anchor="middle" x="1361.88" y="-308.72" font-family="Times,serif" font-size="14.00">coordinates</text>
</g>
</g>
</svg>
