<?xml version="1.0" encoding="UTF-8" standalone="no"?>
<!DOCTYPE svg PUBLIC "-//W3C//DTD SVG 1.1//EN"
 "http://www.w3.org/Graphics/SVG/1.1/DTD/svg11.dtd">
<!-- Generated by graphviz version 14.0.2 (20251019.1705)
 -->
<!-- Title: GuidelineConcepts Pages: 1 -->
<svg width="1846pt" height="967pt"
 viewBox="0.00 0.00 1846.00 967.00" xmlns="http://www.w3.org/2000/svg" xmlns:xlink="http://www.w3.org/1999/xlink">
<g id="graph0" class="graph" transform="scale(1 1) rotate(0) translate(4 963)">
<title>GuidelineConcepts</title>
<polygon fill="white" stroke="none" points="-4,4 -4,-963 1841.75,-963 1841.75,4 -4,4"/>
<g id="clust1" class="cluster">
<title>cluster_core</title>
<polygon fill="lightgrey" stroke="lightgrey" points="950.62,-8 950.62,-90 1829.75,-90 1829.75,-8 950.62,-8"/>
<text xml:space="preserve" text-anchor="middle" x="1390.19" y="-72.7" font-family="Times,serif" font-size="14.00">Core Guidelines</text>
</g>
<g id="clust2" class="cluster">
<title>cluster_data</title>
<polygon fill="lightgrey" stroke="lightgrey" points="9.12,-353 9.12,-547 1100.75,-547 1100.75,-353 9.12,-353"/>
<text xml:space="preserve" text-anchor="middle" x="554.94" y="-529.7" font-family="Times,serif" font-size="14.00">Database Layer</text>
</g>
<g id="clust3" class="cluster">
<title>cluster_ui</title>
<polygon fill="lightgrey" stroke="lightgrey" points="8,-763 8,-951 1628.88,-951 1628.88,-763 8,-763"/>
<text xml:space="preserve" text-anchor="middle" x="818.44" y="-933.7" font-family="Times,serif" font-size="14.00">UI Layer</text>
</g>
<g id="clust4" class="cluster">
<title>cluster_tools</title>
<polygon fill="lightgrey" stroke="lightgrey" points="957.75,-555 957.75,-755 1122.5,-755 1122.5,-555 957.75,-555"/>
<text xml:space="preserve" text-anchor="middle" x="1040.12" y="-737.7" font-family="Times,serif" font-size="14.00">Tools &amp; Infrastructure</text>
</g>
<g id="clust5" class="cluster">
<title>cluster_projects</title>
<polygon fill="lightgrey" stroke="lightgrey" points="934.5,-204 934.5,-345 1412.62,-345 1412.62,-204 934.5,-204"/>
<text xml:space="preserve" text-anchor="middle" x="1173.56" y="-327.7" font-family="Times,serif" font-size="14.00">Projects</text>
</g>
<!-- git -->
<g id="node1" class="node">
<title>git</title>
<polygon fill="lightblue" stroke="black" points="1393.38,-57.5 1288.12,-57.5 1288.12,-16.5 1393.38,-16.5 1393.38,-57.5"/>
<text xml:space="preserve" text-anchor="middle" x="1340.75" y="-40.2" font-family="Times,serif" font-size="14.00">Git Workflow</text>
<text xml:space="preserve" text-anchor="middle" x="1340.75" y="-23.7" font-family="Times,serif" font-size="14.00">(GUIDELINES)</text>
</g>
<!-- verification -->
<g id="node2" class="node">
<title>verification</title>
<polygon fill="lightblue" stroke="black" points="1628,-57.5 1516.75,-57.5 1516.75,-16.5 1628,-16.5 1628,-57.5"/>
<text xml:space="preserve" text-anchor="middle" x="1572.38" y="-40.2" font-family="Times,serif" font-size="14.00">Code Verification</text>
<text xml:space="preserve" text-anchor="middle" x="1572.38" y="-23.7" font-family="Times,serif" font-size="14.00">(GUIDELINES)</text>
</g>
<!-- git&#45;&gt;verification -->
<g id="edge20" class="edge">
<title>git&#45;&gt;verification</title>
<path fill="none" stroke="black" d="M1393.86,-37C1426.81,-37 1469.71,-37 1505.08,-37"/>
<polygon fill="black" stroke="black" points="1504.76,-40.5 1514.76,-37 1504.76,-33.5 1504.76,-40.5"/>
<text xml:space="preserve" text-anchor="middle" x="1462.38" y="-40.2" font-family="Times,serif" font-size="14.00">before merge</text>
</g>
<!-- communication -->
<g id="node3" class="node">
<title>communication</title>
<polygon fill="lightblue" stroke="black" points="1821.75,-57.5 1716.5,-57.5 1716.5,-16.5 1821.75,-16.5 1821.75,-57.5"/>
<text xml:space="preserve" text-anchor="middle" x="1769.12" y="-40.2" font-family="Times,serif" font-size="14.00">Communication</text>
<text xml:space="preserve" text-anchor="middle" x="1769.12" y="-23.7" font-family="Times,serif" font-size="14.00">(GUIDELINES)</text>
</g>
<!-- verification&#45;&gt;communication -->
<g id="edge21" class="edge">
<title>verification&#45;&gt;communication</title>
<path fill="none" stroke="black" d="M1628.4,-37C1652.19,-37 1680.17,-37 1704.82,-37"/>
<polygon fill="black" stroke="black" points="1704.73,-40.5 1714.73,-37 1704.73,-33.5 1704.73,-40.5"/>
<text xml:space="preserve" text-anchor="middle" x="1672.25" y="-40.2" font-family="Times,serif" font-size="14.00">report via</text>
</g>
<!-- startup_json -->
<g id="node4" class="node">
<title>startup_json</title>
<polygon fill="lightblue" stroke="black" points="1121.62,-57.5 958.62,-57.5 958.62,-16.5 1121.62,-16.5 1121.62,-57.5"/>
<text xml:space="preserve" text-anchor="middle" x="1040.12" y="-40.2" font-family="Times,serif" font-size="14.00">Startup JSON</text>
<text xml:space="preserve" text-anchor="middle" x="1040.12" y="-23.7" font-family="Times,serif" font-size="14.00">(guides/STARTUP_JSON)</text>
</g>
<!-- startup_json&#45;&gt;git -->
<g id="edge22" class="edge">
<title>startup_json&#45;&gt;git</title>
<path fill="none" stroke="black" d="M1121.94,-37C1170.56,-37 1231.56,-37 1276.62,-37"/>
<polygon fill="black" stroke="black" points="1276.5,-40.5 1286.5,-37 1276.5,-33.5 1276.5,-40.5"/>
<text xml:space="preserve" text-anchor="middle" x="1207.88" y="-40.2" font-family="Times,serif" font-size="14.00">defines workflow</text>
</g>
<!-- db_pk -->
<g id="node5" class="node">
<title>db_pk</title>
<polygon fill="lightgreen" stroke="black" points="122.38,-402.5 17.12,-402.5 17.12,-361.5 122.38,-361.5 122.38,-402.5"/>
<text xml:space="preserve" text-anchor="middle" x="69.75" y="-385.2" font-family="Times,serif" font-size="14.00">Primary Keys</text>
<text xml:space="preserve" text-anchor="middle" x="69.75" y="-368.7" font-family="Times,serif" font-size="14.00">(GUIDELINES)</text>
</g>
<!-- ash_resource -->
<g id="node6" class="node">
<title>ash_resource</title>
<polygon fill="lightgreen" stroke="black" points="374.25,-514.5 269,-514.5 269,-473.5 374.25,-473.5 374.25,-514.5"/>
<text xml:space="preserve" text-anchor="middle" x="321.62" y="-497.2" font-family="Times,serif" font-size="14.00">Ash Resources</text>
<text xml:space="preserve" text-anchor="middle" x="321.62" y="-480.7" font-family="Times,serif" font-size="14.00">(GUIDELINES)</text>
</g>
<!-- db_pk&#45;&gt;ash_resource -->
<g id="edge1" class="edge">
<title>db_pk&#45;&gt;ash_resource</title>
<path fill="none" stroke="black" d="M117.46,-402.93C158.91,-421.52 219.59,-448.72 263.84,-468.55"/>
<polygon fill="black" stroke="black" points="262.21,-471.65 272.77,-472.55 265.07,-465.26 262.21,-471.65"/>
<text xml:space="preserve" text-anchor="middle" x="179" y="-447.91" font-family="Times,serif" font-size="14.00">used in</text>
</g>
<!-- calvin_domain -->
<g id="node20" class="node">
<title>calvin_domain</title>
<polygon fill="plum" stroke="black" points="1400.5,-253.5 1281,-253.5 1281,-212.5 1400.5,-212.5 1400.5,-253.5"/>
<text xml:space="preserve" text-anchor="middle" x="1340.75" y="-236.2" font-family="Times,serif" font-size="14.00">Calvin Business</text>
<text xml:space="preserve" text-anchor="middle" x="1340.75" y="-219.7" font-family="Times,serif" font-size="14.00">(calvin/README)</text>
</g>
<!-- db_pk&#45;&gt;calvin_domain -->
<g id="edge26" class="edge">
<title>db_pk&#45;&gt;calvin_domain</title>
<path fill="none" stroke="black" d="M77.92,-361.41C101.58,-297.68 183.5,-108 320.62,-108 320.62,-108 320.62,-108 1041.12,-108 1137.46,-108 1170.57,-94.54 1255.5,-140 1282.82,-154.62 1305.78,-181.7 1320.8,-202.88"/>
<polygon fill="black" stroke="black" points="1317.74,-204.61 1326.28,-210.88 1323.52,-200.65 1317.74,-204.61"/>
<text xml:space="preserve" text-anchor="middle" x="625.25" y="-111.2" font-family="Times,serif" font-size="14.00">applied in</text>
</g>
<!-- sanjuan_domain -->
<g id="node21" class="node">
<title>sanjuan_domain</title>
<polygon fill="plum" stroke="black" points="1404.62,-312.5 1276.88,-312.5 1276.88,-271.5 1404.62,-271.5 1404.62,-312.5"/>
<text xml:space="preserve" text-anchor="middle" x="1340.75" y="-295.2" font-family="Times,serif" font-size="14.00">SanJuan Analytics</text>
<text xml:space="preserve" text-anchor="middle" x="1340.75" y="-278.7" font-family="Times,serif" font-size="14.00">(sanjuan/README)</text>
</g>
<!-- db_pk&#45;&gt;sanjuan_domain -->
<g id="edge27" class="edge">
<title>db_pk&#45;&gt;sanjuan_domain</title>
<path fill="none" stroke="black" d="M122.84,-366.81C278.55,-322.37 754.84,-193.43 1160.25,-157 1202.41,-153.21 1223.16,-129.69 1255.5,-157 1289.51,-185.72 1250.24,-220.25 1274.92,-261.78"/>
<polygon fill="black" stroke="black" points="1271.95,-263.64 1280.57,-269.8 1277.67,-259.61 1271.95,-263.64"/>
<text xml:space="preserve" text-anchor="middle" x="625.25" y="-267.59" font-family="Times,serif" font-size="14.00">applied in</text>
</g>
<!-- poly_relations -->
<g id="node7" class="node">
<title>poly_relations</title>
<polygon fill="lightgreen" stroke="black" points="726.25,-461.5 524.25,-461.5 524.25,-420.5 726.25,-420.5 726.25,-461.5"/>
<text xml:space="preserve" text-anchor="middle" x="625.25" y="-444.2" font-family="Times,serif" font-size="14.00">Polymorphic Relations</text>
<text xml:space="preserve" text-anchor="middle" x="625.25" y="-427.7" font-family="Times,serif" font-size="14.00">(POLYMORPHIC_RELATIONS)</text>
</g>
<!-- ash_resource&#45;&gt;poly_relations -->
<g id="edge2" class="edge">
<title>ash_resource&#45;&gt;poly_relations</title>
<path fill="none" stroke="black" d="M374.48,-484.89C412.37,-478.23 465.18,-468.95 512.49,-460.64"/>
<polygon fill="black" stroke="black" points="513.02,-464.1 522.26,-458.92 511.81,-457.2 513.02,-464.1"/>
<text xml:space="preserve" text-anchor="middle" x="465.75" y="-478.54" font-family="Times,serif" font-size="14.00">implements</text>
</g>
<!-- migrations -->
<g id="node8" class="node">
<title>migrations</title>
<polygon fill="lightgreen" stroke="black" points="1092.75,-461.5 987.5,-461.5 987.5,-420.5 1092.75,-420.5 1092.75,-461.5"/>
<text xml:space="preserve" text-anchor="middle" x="1040.12" y="-444.2" font-family="Times,serif" font-size="14.00">Data Migrations</text>
<text xml:space="preserve" text-anchor="middle" x="1040.12" y="-427.7" font-family="Times,serif" font-size="14.00">(GUIDELINES)</text>
</g>
<!-- ash_resource&#45;&gt;migrations -->
<g id="edge3" class="edge">
<title>ash_resource&#45;&gt;migrations</title>
<path fill="none" stroke="black" d="M374.44,-500.23C478.91,-511.35 721.74,-529.93 920,-490 943.54,-485.26 968.28,-475.88 989.09,-466.58"/>
<polygon fill="black" stroke="black" points="990.27,-469.89 997.89,-462.53 987.34,-463.53 990.27,-469.89"/>
<text xml:space="preserve" text-anchor="middle" x="625.25" y="-517.58" font-family="Times,serif" font-size="14.00">creates</text>
</g>
<!-- data_modification -->
<g id="node9" class="node">
<title>data_modification</title>
<polygon fill="lightgreen" stroke="black" points="727.75,-402.5 522.75,-402.5 522.75,-361.5 727.75,-361.5 727.75,-402.5"/>
<text xml:space="preserve" text-anchor="middle" x="625.25" y="-385.2" font-family="Times,serif" font-size="14.00">Data Modification</text>
<text xml:space="preserve" text-anchor="middle" x="625.25" y="-368.7" font-family="Times,serif" font-size="14.00">(guides/DATA_MODIFICATION)</text>
</g>
<!-- ash_resource&#45;&gt;data_modification -->
<g id="edge4" class="edge">
<title>ash_resource&#45;&gt;data_modification</title>
<path fill="none" stroke="black" d="M348.53,-473.28C368.74,-458.08 398.1,-438.07 426.75,-426 453.26,-414.83 483.01,-406.3 511.22,-399.87"/>
<polygon fill="black" stroke="black" points="511.88,-403.31 520.89,-397.75 510.37,-396.48 511.88,-403.31"/>
<text xml:space="preserve" text-anchor="middle" x="465.75" y="-445.7" font-family="Times,serif" font-size="14.00">ALWAYS use</text>
<text xml:space="preserve" text-anchor="middle" x="465.75" y="-429.2" font-family="Times,serif" font-size="14.00">never SQL</text>
</g>
<!-- liveview -->
<g id="node12" class="node">
<title>liveview</title>
<polygon fill="lightyellow" stroke="black" points="671.12,-812.5 579.38,-812.5 579.38,-771.5 671.12,-771.5 671.12,-812.5"/>
<text xml:space="preserve" text-anchor="middle" x="625.25" y="-795.2" font-family="Times,serif" font-size="14.00">LiveView</text>
<text xml:space="preserve" text-anchor="middle" x="625.25" y="-778.7" font-family="Times,serif" font-size="14.00">(LIVEVIEW)</text>
</g>
<!-- ash_resource&#45;&gt;liveview -->
<g id="edge23" class="edge">
<title>ash_resource&#45;&gt;liveview</title>
<path fill="none" stroke="black" d="M328.83,-514.82C341.45,-554.02 373.48,-639.54 426.75,-692 466.76,-731.4 525.44,-758.4 568.44,-774.32"/>
<polygon fill="black" stroke="black" points="567,-777.52 577.59,-777.62 569.37,-770.94 567,-777.52"/>
<text xml:space="preserve" text-anchor="middle" x="465.75" y="-747.24" font-family="Times,serif" font-size="14.00">displayed in</text>
</g>
<!-- javascript -->
<g id="node13" class="node">
<title>javascript</title>
<polygon fill="lightyellow" stroke="black" points="920,-868.5 745.75,-868.5 745.75,-827.5 920,-827.5 920,-868.5"/>
<text xml:space="preserve" text-anchor="middle" x="832.88" y="-851.2" font-family="Times,serif" font-size="14.00">JavaScript</text>
<text xml:space="preserve" text-anchor="middle" x="832.88" y="-834.7" font-family="Times,serif" font-size="14.00">(guides/LIVEVIEW_VS_JS)</text>
</g>
<!-- ash_resource&#45;&gt;javascript -->
<g id="edge24" class="edge">
<title>ash_resource&#45;&gt;javascript</title>
<path fill="none" stroke="black" d="M333.82,-514.75C350.57,-544.12 384.74,-597.91 426.75,-631 484.13,-676.19 677.88,-709.64 727.75,-763 743.88,-780.26 729.39,-795.97 745.75,-813 748.46,-815.82 751.43,-818.42 754.58,-820.82"/>
<polygon fill="black" stroke="black" points="752.38,-823.56 762.64,-826.21 756.27,-817.74 752.38,-823.56"/>
<text xml:space="preserve" text-anchor="middle" x="465.75" y="-670.8" font-family="Times,serif" font-size="14.00">fetched by</text>
</g>
<!-- markdown_editor -->
<g id="node16" class="node">
<title>markdown_editor</title>
<polygon fill="lightyellow" stroke="black" points="1142.25,-812.5 938,-812.5 938,-771.5 1142.25,-771.5 1142.25,-812.5"/>
<text xml:space="preserve" text-anchor="middle" x="1040.12" y="-795.2" font-family="Times,serif" font-size="14.00">Markdown Editor</text>
<text xml:space="preserve" text-anchor="middle" x="1040.12" y="-778.7" font-family="Times,serif" font-size="14.00">(guides/MARKDOWN_EDITOR)</text>
</g>
<!-- ash_resource&#45;&gt;markdown_editor -->
<g id="edge16" class="edge">
<title>ash_resource&#45;&gt;markdown_editor</title>
<path fill="none" stroke="black" d="M335.4,-514.96C352.54,-540.92 385.64,-584.02 426.75,-603 526.43,-649.02 840.22,-555.58 920,-631 940.8,-650.67 916.3,-736.9 934.5,-759 935.95,-760.76 937.5,-762.44 939.13,-764.02"/>
<polygon fill="black" stroke="black" points="936.78,-766.62 946.73,-770.26 941.22,-761.21 936.78,-766.62"/>
<text xml:space="preserve" text-anchor="middle" x="625.25" y="-619.55" font-family="Times,serif" font-size="14.00">field type</text>
</g>
<!-- fly -->
<g id="node19" class="node">
<title>fly</title>
<polygon fill="lightcoral" stroke="black" points="1114.5,-604.5 965.75,-604.5 965.75,-563.5 1114.5,-563.5 1114.5,-604.5"/>
<text xml:space="preserve" text-anchor="middle" x="1040.12" y="-587.2" font-family="Times,serif" font-size="14.00">Fly Deployment</text>
<text xml:space="preserve" text-anchor="middle" x="1040.12" y="-570.7" font-family="Times,serif" font-size="14.00">(FLY_DEPLOYMENT)</text>
</g>
<!-- ash_resource&#45;&gt;fly -->
<g id="edge40" class="edge">
<title>ash_resource&#45;&gt;fly</title>
<path fill="none" stroke="black" d="M374.6,-506.25C414.84,-515.34 472.07,-527.43 522.75,-535 673.84,-557.58 851.43,-571.75 954.06,-578.74"/>
<polygon fill="black" stroke="black" points="953.56,-582.22 963.77,-579.4 954.03,-575.23 953.56,-582.22"/>
<text xml:space="preserve" text-anchor="middle" x="625.25" y="-563.04" font-family="Times,serif" font-size="14.00">deployed via</text>
</g>
<!-- poly_relations&#45;&gt;migrations -->
<g id="edge5" class="edge">
<title>poly_relations&#45;&gt;migrations</title>
<path fill="none" stroke="black" d="M726.72,-441C804.46,-441 909.69,-441 975.99,-441"/>
<polygon fill="black" stroke="black" points="975.58,-444.5 985.58,-441 975.58,-437.5 975.58,-444.5"/>
<text xml:space="preserve" text-anchor="middle" x="832.88" y="-444.2" font-family="Times,serif" font-size="14.00">requires</text>
</g>
<!-- poly_relations&#45;&gt;liveview -->
<g id="edge25" class="edge">
<title>poly_relations&#45;&gt;liveview</title>
<path fill="none" stroke="black" d="M545.31,-461.88C537.24,-465.83 529.54,-470.49 522.75,-476 474.92,-514.83 437.9,-541.5 459.33,-599.25 485.11,-668.71 548.39,-729.93 588.92,-763.87"/>
<polygon fill="black" stroke="black" points="586.59,-766.48 596.54,-770.13 591.04,-761.07 586.59,-766.48"/>
<text xml:space="preserve" text-anchor="middle" x="465.75" y="-585.95" font-family="Times,serif" font-size="14.00">displayed in</text>
</g>
<!-- maestro_coord -->
<g id="node22" class="node">
<title>maestro_coord</title>
<polygon fill="plum" stroke="black" points="1108.12,-253.5 972.12,-253.5 972.12,-212.5 1108.12,-212.5 1108.12,-253.5"/>
<text xml:space="preserve" text-anchor="middle" x="1040.12" y="-236.2" font-family="Times,serif" font-size="14.00">Maestro Coordination</text>
<text xml:space="preserve" text-anchor="middle" x="1040.12" y="-219.7" font-family="Times,serif" font-size="14.00">(maestro/README)</text>
</g>
<!-- poly_relations&#45;&gt;maestro_coord -->
<g id="edge28" class="edge">
<title>poly_relations&#45;&gt;maestro_coord</title>
<path fill="none" stroke="black" d="M723.73,-420C803.94,-401.83 906.56,-376.15 920,-361 949.23,-328.07 905.49,-296.12 934.5,-263 941.71,-254.77 951,-248.73 961.08,-244.31"/>
<polygon fill="black" stroke="black" points="962.27,-247.6 970.39,-240.79 959.79,-241.05 962.27,-247.6"/>
<text xml:space="preserve" text-anchor="middle" x="832.88" y="-417.66" font-family="Times,serif" font-size="14.00">used in tasks</text>
</g>
<!-- migrations&#45;&gt;verification -->
<g id="edge6" class="edge">
<title>migrations&#45;&gt;verification</title>
<path fill="none" stroke="black" d="M1092.97,-440.91C1170.37,-438.2 1317.25,-422.8 1412.62,-349 1506.74,-276.17 1549.76,-132.22 1564.78,-68.55"/>
<polygon fill="black" stroke="black" points="1568.13,-69.64 1566.93,-59.11 1561.3,-68.08 1568.13,-69.64"/>
<text xml:space="preserve" text-anchor="middle" x="1340.75" y="-416.42" font-family="Times,serif" font-size="14.00">requires</text>
</g>
<!-- data_modification&#45;&gt;verification -->
<g id="edge7" class="edge">
<title>data_modification&#45;&gt;verification</title>
<path fill="none" stroke="black" d="M722.7,-361.15C724.45,-359.84 726.14,-358.46 727.75,-357 745.56,-340.85 730.28,-324.4 745.75,-306 807.67,-232.36 845.12,-235.61 934.5,-200 1174.73,-104.29 1249.11,-125.48 1498.75,-58 1500.89,-57.42 1503.06,-56.83 1505.25,-56.23"/>
<polygon fill="black" stroke="black" points="1506.16,-59.6 1514.86,-53.55 1504.28,-52.86 1506.16,-59.6"/>
<text xml:space="preserve" text-anchor="middle" x="1207.88" y="-132.12" font-family="Times,serif" font-size="14.00">ensures validity</text>
</g>
<!-- phoenix -->
<g id="node10" class="node">
<title>phoenix</title>
<polygon fill="lightyellow" stroke="black" points="123.5,-844.5 16,-844.5 16,-803.5 123.5,-803.5 123.5,-844.5"/>
<text xml:space="preserve" text-anchor="middle" x="69.75" y="-827.2" font-family="Times,serif" font-size="14.00">Phoenix Patterns</text>
<text xml:space="preserve" text-anchor="middle" x="69.75" y="-810.7" font-family="Times,serif" font-size="14.00">(LIVEVIEW)</text>
</g>
<!-- ui_decision -->
<g id="node11" class="node">
<title>ui_decision</title>
<polygon fill="lightyellow" stroke="black" points="408.75,-852.75 234.5,-852.75 234.5,-795.25 408.75,-795.25 408.75,-852.75"/>
<text xml:space="preserve" text-anchor="middle" x="321.62" y="-835.45" font-family="Times,serif" font-size="14.00">LiveView vs JS</text>
<text xml:space="preserve" text-anchor="middle" x="321.62" y="-818.95" font-family="Times,serif" font-size="14.00">Decision Point</text>
<text xml:space="preserve" text-anchor="middle" x="321.62" y="-802.45" font-family="Times,serif" font-size="14.00">(guides/LIVEVIEW_VS_JS)</text>
</g>
<!-- phoenix&#45;&gt;ui_decision -->
<g id="edge8" class="edge">
<title>phoenix&#45;&gt;ui_decision</title>
<path fill="none" stroke="black" d="M123.74,-824C152.57,-824 189.16,-824 222.95,-824"/>
<polygon fill="black" stroke="black" points="222.77,-827.5 232.77,-824 222.77,-820.5 222.77,-827.5"/>
<text xml:space="preserve" text-anchor="middle" x="179" y="-827.2" font-family="Times,serif" font-size="14.00">FIRST decide</text>
</g>
<!-- ui_decision&#45;&gt;liveview -->
<g id="edge9" class="edge">
<title>ui_decision&#45;&gt;liveview</title>
<path fill="none" stroke="black" d="M409.14,-796.24C415.06,-794.96 420.97,-793.86 426.75,-793 473.98,-786 528.27,-786.32 567.96,-788.06"/>
<polygon fill="black" stroke="black" points="567.59,-791.55 577.75,-788.54 567.94,-784.56 567.59,-791.55"/>
<text xml:space="preserve" text-anchor="middle" x="465.75" y="-812.7" font-family="Times,serif" font-size="14.00">if real&#45;time</text>
<text xml:space="preserve" text-anchor="middle" x="465.75" y="-796.2" font-family="Times,serif" font-size="14.00">or multi&#45;user</text>
</g>
<!-- ui_decision&#45;&gt;javascript -->
<g id="edge10" class="edge">
<title>ui_decision&#45;&gt;javascript</title>
<path fill="none" stroke="black" d="M409.01,-828.07C499.14,-832.32 640.16,-838.96 734.25,-843.4"/>
<polygon fill="black" stroke="black" points="733.82,-846.88 743.98,-843.86 734.15,-839.89 733.82,-846.88"/>
<text xml:space="preserve" text-anchor="middle" x="465.75" y="-852.15" font-family="Times,serif" font-size="14.00">if client&#45;side</text>
<text xml:space="preserve" text-anchor="middle" x="465.75" y="-835.65" font-family="Times,serif" font-size="14.00">or simple</text>
</g>
<!-- daisyui -->
<g id="node14" class="node">
<title>daisyui</title>
<polygon fill="lightyellow" stroke="black" points="1408,-812.5 1273.5,-812.5 1273.5,-771.5 1408,-771.5 1408,-812.5"/>
<text xml:space="preserve" text-anchor="middle" x="1340.75" y="-795.2" font-family="Times,serif" font-size="14.00">DaisyUI Components</text>
<text xml:space="preserve" text-anchor="middle" x="1340.75" y="-778.7" font-family="Times,serif" font-size="14.00">(DAISYUI)</text>
</g>
<!-- liveview&#45;&gt;daisyui -->
<g id="edge11" class="edge">
<title>liveview&#45;&gt;daisyui</title>
<path fill="none" stroke="black" d="M646.4,-812.74C668.49,-833.85 706.1,-865.21 745.75,-878 913.56,-932.11 969.55,-900.53 1142.25,-865 1192.05,-854.76 1246.02,-834.1 1284.95,-817.36"/>
<polygon fill="black" stroke="black" points="1285.85,-820.79 1293.62,-813.59 1283.05,-814.37 1285.85,-820.79"/>
<text xml:space="preserve" text-anchor="middle" x="1040.12" y="-908.99" font-family="Times,serif" font-size="14.00">styles with</text>
</g>
<!-- liveview&#45;&gt;markdown_editor -->
<g id="edge15" class="edge">
<title>liveview&#45;&gt;markdown_editor</title>
<path fill="none" stroke="black" d="M671.62,-792C732.4,-792 842.32,-792 926.17,-792"/>
<polygon fill="black" stroke="black" points="926.04,-795.5 936.04,-792 926.04,-788.5 926.04,-795.5"/>
<text xml:space="preserve" text-anchor="middle" x="832.88" y="-795.2" font-family="Times,serif" font-size="14.00">can use</text>
</g>
<!-- live_table -->
<g id="node18" class="node">
<title>live_table</title>
<polygon fill="lightcoral" stroke="black" points="1093.12,-663.5 987.12,-663.5 987.12,-622.5 1093.12,-622.5 1093.12,-663.5"/>
<text xml:space="preserve" text-anchor="middle" x="1040.12" y="-646.2" font-family="Times,serif" font-size="14.00">LiveTable</text>
<text xml:space="preserve" text-anchor="middle" x="1040.12" y="-629.7" font-family="Times,serif" font-size="14.00">(LIVE_TABLE)</text>
</g>
<!-- liveview&#45;&gt;live_table -->
<g id="edge18" class="edge">
<title>liveview&#45;&gt;live_table</title>
<path fill="none" stroke="black" d="M671.39,-783.44C751.5,-768.09 910.99,-736.63 920,-728 938.26,-710.52 916.82,-691.07 934.5,-673 945.56,-661.7 960.57,-654.58 975.77,-650.12"/>
<polygon fill="black" stroke="black" points="976.51,-653.54 985.34,-647.69 974.79,-646.75 976.51,-653.54"/>
<text xml:space="preserve" text-anchor="middle" x="832.88" y="-770.99" font-family="Times,serif" font-size="14.00">can use</text>
</g>
<!-- liveview&#45;&gt;fly -->
<g id="edge39" class="edge">
<title>liveview&#45;&gt;fly</title>
<path fill="none" stroke="black" d="M648.47,-771.03C671.07,-751.06 708.03,-721.97 745.75,-707.5 782.15,-693.54 891.36,-713.46 920,-687 944.29,-664.55 912.1,-638.34 934.5,-614 940.33,-607.67 947.39,-602.64 955.07,-598.65"/>
<polygon fill="black" stroke="black" points="956.39,-601.89 964.08,-594.6 953.53,-595.51 956.39,-601.89"/>
<text xml:space="preserve" text-anchor="middle" x="832.88" y="-710.7" font-family="Times,serif" font-size="14.00">deployed via</text>
</g>
<!-- javascript&#45;&gt;daisyui -->
<g id="edge12" class="edge">
<title>javascript&#45;&gt;daisyui</title>
<path fill="none" stroke="black" d="M920.37,-844.9C1005.96,-840.88 1140.45,-831.99 1255.5,-813 1257.68,-812.64 1259.88,-812.25 1262.09,-811.84"/>
<polygon fill="black" stroke="black" points="1262.66,-815.3 1271.79,-809.92 1261.3,-808.43 1262.66,-815.3"/>
<text xml:space="preserve" text-anchor="middle" x="1040.12" y="-847.39" font-family="Times,serif" font-size="14.00">styles with</text>
</g>
<!-- css -->
<g id="node15" class="node">
<title>css</title>
<polygon fill="lightyellow" stroke="black" points="1620.88,-840.5 1523.88,-840.5 1523.88,-799.5 1620.88,-799.5 1620.88,-840.5"/>
<text xml:space="preserve" text-anchor="middle" x="1572.38" y="-823.2" font-family="Times,serif" font-size="14.00">CSS Standards</text>
<text xml:space="preserve" text-anchor="middle" x="1572.38" y="-806.7" font-family="Times,serif" font-size="14.00">(DAISYUI)</text>
</g>
<!-- daisyui&#45;&gt;css -->
<g id="edge13" class="edge">
<title>daisyui&#45;&gt;css</title>
<path fill="none" stroke="black" d="M1408.48,-800.14C1441.26,-804.13 1480.43,-808.91 1512.15,-812.78"/>
<polygon fill="black" stroke="black" points="1511.61,-816.24 1521.96,-813.97 1512.46,-809.29 1511.61,-816.24"/>
<text xml:space="preserve" text-anchor="middle" x="1462.38" y="-814.14" font-family="Times,serif" font-size="14.00">defines</text>
</g>
<!-- css_linter -->
<g id="node17" class="node">
<title>css_linter</title>
<polygon fill="lightcoral" stroke="black" points="1084.5,-722.5 995.75,-722.5 995.75,-681.5 1084.5,-681.5 1084.5,-722.5"/>
<text xml:space="preserve" text-anchor="middle" x="1040.12" y="-705.2" font-family="Times,serif" font-size="14.00">CSS Linter</text>
<text xml:space="preserve" text-anchor="middle" x="1040.12" y="-688.7" font-family="Times,serif" font-size="14.00">(usage_rules)</text>
</g>
<!-- css&#45;&gt;css_linter -->
<g id="edge14" class="edge">
<title>css&#45;&gt;css_linter</title>
<path fill="none" stroke="black" d="M1523.45,-830.98C1462.86,-842.51 1356.45,-854.83 1273.5,-822 1263.82,-818.17 1264.24,-812.66 1255.5,-807 1203.67,-773.4 1139.52,-743.33 1094.97,-724.07"/>
<polygon fill="black" stroke="black" points="1096.61,-720.97 1086.04,-720.25 1093.85,-727.4 1096.61,-720.97"/>
<text xml:space="preserve" text-anchor="middle" x="1340.75" y="-846.35" font-family="Times,serif" font-size="14.00">analyzed by</text>
</g>
<!-- markdown_editor&#45;&gt;daisyui -->
<g id="edge17" class="edge">
<title>markdown_editor&#45;&gt;daisyui</title>
<path fill="none" stroke="black" d="M1142.64,-792C1181.72,-792 1225.67,-792 1262.14,-792"/>
<polygon fill="black" stroke="black" points="1261.7,-795.5 1271.7,-792 1261.7,-788.5 1261.7,-795.5"/>
<text xml:space="preserve" text-anchor="middle" x="1207.88" y="-795.2" font-family="Times,serif" font-size="14.00">styled with</text>
</g>
<!-- css_linter&#45;&gt;maestro_coord -->
<g id="edge36" class="edge">
<title>css_linter&#45;&gt;maestro_coord</title>
<path fill="none" stroke="black" d="M995.39,-697.79C975.06,-693.98 951.76,-686.74 934.5,-673 809.46,-573.47 813.44,-558.42 833.88,-469.75 856.82,-370.17 856.16,-328.62 934.5,-263 942.33,-256.44 951.52,-251.31 961.15,-247.3"/>
<polygon fill="black" stroke="black" points="962.15,-250.66 970.3,-243.9 959.71,-244.1 962.15,-250.66"/>
<text xml:space="preserve" text-anchor="middle" x="832.88" y="-472.95" font-family="Times,serif" font-size="14.00">integrated in</text>
</g>
<!-- live_table&#45;&gt;daisyui -->
<g id="edge19" class="edge">
<title>live_table&#45;&gt;daisyui</title>
<path fill="none" stroke="black" d="M1093.48,-655.79C1109.44,-660.42 1126.83,-666.2 1142.25,-673 1200.5,-698.69 1262.59,-738.38 1301.27,-764.77"/>
<polygon fill="black" stroke="black" points="1299.12,-767.53 1309.34,-770.31 1303.08,-761.76 1299.12,-767.53"/>
<text xml:space="preserve" text-anchor="middle" x="1207.88" y="-735.95" font-family="Times,serif" font-size="14.00">styled with</text>
</g>
<!-- live_table&#45;&gt;calvin_domain -->
<g id="edge38" class="edge">
<title>live_table&#45;&gt;calvin_domain</title>
<path fill="none" stroke="black" d="M1093.48,-638.99C1111.23,-635.05 1129.72,-627.67 1142.25,-614 1170.55,-583.12 1145.5,-560.7 1160.25,-521.5 1189.86,-442.79 1226.08,-436.78 1255.5,-358 1270.53,-317.74 1246.93,-296.78 1273.5,-263 1273.83,-262.58 1274.17,-262.16 1274.52,-261.75"/>
<polygon fill="black" stroke="black" points="1276.78,-264.43 1281.59,-254.99 1271.94,-259.37 1276.78,-264.43"/>
<text xml:space="preserve" text-anchor="middle" x="1207.88" y="-524.7" font-family="Times,serif" font-size="14.00">used in</text>
</g>
<!-- live_table&#45;&gt;sanjuan_domain -->
<g id="edge37" class="edge">
<title>live_table&#45;&gt;sanjuan_domain</title>
<path fill="none" stroke="black" d="M1093.27,-634.8C1144.64,-623.63 1220.37,-598.16 1255.5,-542 1292.98,-482.08 1248.02,-449.93 1273.5,-384 1282.44,-360.86 1298.64,-338.21 1312.77,-321.17"/>
<polygon fill="black" stroke="black" points="1315.11,-323.82 1318.95,-313.95 1309.79,-319.28 1315.11,-323.82"/>
<text xml:space="preserve" text-anchor="middle" x="1207.88" y="-617" font-family="Times,serif" font-size="14.00">used in</text>
</g>
<!-- fly&#45;&gt;verification -->
<g id="edge41" class="edge">
<title>fly&#45;&gt;verification</title>
<path fill="none" stroke="black" d="M1114.8,-569.38C1124.98,-564.83 1134.56,-558.84 1142.25,-551 1161.45,-531.43 1140.2,-510.69 1160.25,-492 1244.44,-413.53 1318.01,-499.53 1412.62,-434 1537.12,-347.76 1564.01,-146.82 1569.8,-68.78"/>
<polygon fill="black" stroke="black" points="1573.26,-69.49 1570.43,-59.28 1566.27,-69.02 1573.26,-69.49"/>
<text xml:space="preserve" text-anchor="middle" x="1340.75" y="-463.92" font-family="Times,serif" font-size="14.00">tested after</text>
</g>
<!-- maestro_coord&#45;&gt;git -->
<g id="edge35" class="edge">
<title>maestro_coord&#45;&gt;git</title>
<path fill="none" stroke="black" d="M1108.53,-221.45C1170.24,-210.77 1252.46,-196.22 1255.5,-194 1297.59,-163.37 1320.75,-105.16 1331.68,-68.87"/>
<polygon fill="black" stroke="black" points="1335.01,-69.96 1334.39,-59.38 1328.28,-68.04 1335.01,-69.96"/>
<text xml:space="preserve" text-anchor="middle" x="1207.88" y="-214.68" font-family="Times,serif" font-size="14.00">manages via</text>
</g>
<!-- maestro_coord&#45;&gt;calvin_domain -->
<g id="edge33" class="edge">
<title>maestro_coord&#45;&gt;calvin_domain</title>
<path fill="none" stroke="black" d="M1108.23,-233.68C1150.49,-234.01 1206.19,-234.29 1255.5,-234 1260.11,-233.97 1264.86,-233.94 1269.64,-233.9"/>
<polygon fill="black" stroke="black" points="1269.35,-237.4 1279.32,-233.8 1269.28,-230.4 1269.35,-237.4"/>
<text xml:space="preserve" text-anchor="middle" x="1207.88" y="-237.32" font-family="Times,serif" font-size="14.00">coordinates</text>
</g>
<!-- maestro_coord&#45;&gt;sanjuan_domain -->
<g id="edge34" class="edge">
<title>maestro_coord&#45;&gt;sanjuan_domain</title>
<path fill="none" stroke="black" d="M1108.51,-246.31C1155.1,-255.52 1217.09,-267.77 1265.16,-277.26"/>
<polygon fill="black" stroke="black" points="1264.46,-280.69 1274.95,-279.2 1265.82,-273.83 1264.46,-280.69"/>
<text xml:space="preserve" text-anchor="middle" x="1207.88" y="-277.77" font-family="Times,serif" font-size="14.00">coordinates</text>
</g>
<!-- circle_learnings -->
<g id="node23" class="node">
<title>circle_learnings</title>
<polygon fill="plum" stroke="black" points="1137.75,-312.5 942.5,-312.5 942.5,-271.5 1137.75,-271.5 1137.75,-312.5"/>
<text xml:space="preserve" text-anchor="middle" x="1040.12" y="-295.2" font-family="Times,serif" font-size="14.00">Circle Patterns</text>
<text xml:space="preserve" text-anchor="middle" x="1040.12" y="-278.7" font-family="Times,serif" font-size="14.00">(guides/CIRCLE_LEARNINGS)</text>
</g>
<!-- circle_learnings&#45;&gt;ash_resource -->
<g id="edge31" class="edge">
<title>circle_learnings&#45;&gt;ash_resource</title>
<path fill="none" stroke="black" d="M942.1,-285.41C835.78,-281.55 661.86,-285.27 522.75,-336.5 449.85,-363.35 382.74,-427.54 347.82,-465.16"/>
<polygon fill="black" stroke="black" points="345.64,-462.36 341.48,-472.1 350.81,-467.08 345.64,-462.36"/>
<text xml:space="preserve" text-anchor="middle" x="625.25" y="-339.7" font-family="Times,serif" font-size="14.00">junction tables</text>
</g>
<!-- circle_learnings&#45;&gt;data_modification -->
<g id="edge32" class="edge">
<title>circle_learnings&#45;&gt;data_modification</title>
<path fill="none" stroke="black" d="M942.02,-306.2C884.56,-315.39 810.58,-328.6 745.75,-344.5 730.31,-348.29 713.94,-352.97 698.43,-357.73"/>
<polygon fill="black" stroke="black" points="697.8,-354.26 689.3,-360.58 699.88,-360.94 697.8,-354.26"/>
<text xml:space="preserve" text-anchor="middle" x="832.88" y="-347.7" font-family="Times,serif" font-size="14.00">proper updates</text>
</g>
<!-- circle_learnings&#45;&gt;liveview -->
<g id="edge29" class="edge">
<title>circle_learnings&#45;&gt;liveview</title>
<path fill="none" stroke="black" d="M977.76,-312.98C961.16,-321.6 944.93,-333.33 934.5,-349 899.6,-401.44 946.87,-433.02 920,-490 872.97,-589.7 822.48,-587.36 745.75,-666.5 713.95,-699.3 677.84,-737.34 653.71,-762.86"/>
<polygon fill="black" stroke="black" points="651.37,-760.24 647.05,-769.92 656.46,-765.05 651.37,-760.24"/>
<text xml:space="preserve" text-anchor="middle" x="832.88" y="-669.7" font-family="Times,serif" font-size="14.00">multi&#45;select patterns</text>
</g>
<!-- circle_learnings&#45;&gt;daisyui -->
<g id="edge30" class="edge">
<title>circle_learnings&#45;&gt;daisyui</title>
<path fill="none" stroke="black" d="M1138.08,-301.5C1187.01,-308.4 1239.37,-319.7 1255.5,-337.5 1279.75,-364.26 1267.51,-463.39 1273.5,-499 1289.63,-594.87 1317.39,-706.47 1331.3,-760.06"/>
<polygon fill="black" stroke="black" points="1327.91,-760.94 1333.82,-769.73 1334.68,-759.17 1327.91,-760.94"/>
<text xml:space="preserve" text-anchor="middle" x="1207.88" y="-340.7" font-family="Times,serif" font-size="14.00">tag UI</text>
</g>
</g>
</svg>
